%TF.GenerationSoftware,KiCad,Pcbnew,8.0.1*%
%TF.CreationDate,2025-01-27T15:49:21-05:00*%
%TF.ProjectId,PHY,5048592e-6b69-4636-9164-5f7063625858,rev?*%
%TF.SameCoordinates,Original*%
%TF.FileFunction,Copper,L2,Bot*%
%TF.FilePolarity,Positive*%
%FSLAX46Y46*%
G04 Gerber Fmt 4.6, Leading zero omitted, Abs format (unit mm)*
G04 Created by KiCad (PCBNEW 8.0.1) date 2025-01-27 15:49:21*
%MOMM*%
%LPD*%
G01*
G04 APERTURE LIST*
G04 Aperture macros list*
%AMRoundRect*
0 Rectangle with rounded corners*
0 $1 Rounding radius*
0 $2 $3 $4 $5 $6 $7 $8 $9 X,Y pos of 4 corners*
0 Add a 4 corners polygon primitive as box body*
4,1,4,$2,$3,$4,$5,$6,$7,$8,$9,$2,$3,0*
0 Add four circle primitives for the rounded corners*
1,1,$1+$1,$2,$3*
1,1,$1+$1,$4,$5*
1,1,$1+$1,$6,$7*
1,1,$1+$1,$8,$9*
0 Add four rect primitives between the rounded corners*
20,1,$1+$1,$2,$3,$4,$5,0*
20,1,$1+$1,$4,$5,$6,$7,0*
20,1,$1+$1,$6,$7,$8,$9,0*
20,1,$1+$1,$8,$9,$2,$3,0*%
G04 Aperture macros list end*
%TA.AperFunction,ComponentPad*%
%ADD10R,1.000000X1.000000*%
%TD*%
%TA.AperFunction,ComponentPad*%
%ADD11R,1.700000X1.700000*%
%TD*%
%TA.AperFunction,SMDPad,CuDef*%
%ADD12RoundRect,0.225000X0.225000X0.250000X-0.225000X0.250000X-0.225000X-0.250000X0.225000X-0.250000X0*%
%TD*%
%TA.AperFunction,SMDPad,CuDef*%
%ADD13RoundRect,0.225000X-0.250000X0.225000X-0.250000X-0.225000X0.250000X-0.225000X0.250000X0.225000X0*%
%TD*%
%TA.AperFunction,SMDPad,CuDef*%
%ADD14RoundRect,0.225000X0.250000X-0.225000X0.250000X0.225000X-0.250000X0.225000X-0.250000X-0.225000X0*%
%TD*%
%TA.AperFunction,ComponentPad*%
%ADD15O,1.700000X1.700000*%
%TD*%
%TA.AperFunction,SMDPad,CuDef*%
%ADD16RoundRect,0.200000X-0.275000X0.200000X-0.275000X-0.200000X0.275000X-0.200000X0.275000X0.200000X0*%
%TD*%
%TA.AperFunction,SMDPad,CuDef*%
%ADD17RoundRect,0.200000X-0.200000X-0.275000X0.200000X-0.275000X0.200000X0.275000X-0.200000X0.275000X0*%
%TD*%
%TA.AperFunction,ViaPad*%
%ADD18C,0.600000*%
%TD*%
%TA.AperFunction,Conductor*%
%ADD19C,0.400000*%
%TD*%
%TA.AperFunction,Conductor*%
%ADD20C,0.500000*%
%TD*%
%TA.AperFunction,Conductor*%
%ADD21C,0.200000*%
%TD*%
G04 APERTURE END LIST*
D10*
%TO.P,J3,1,Pin_1*%
%TO.N,GND1*%
X162400000Y-91600000D03*
%TD*%
D11*
%TO.P,J4,1,Pin_1*%
%TO.N,unconnected-(J4-Pin_1-Pad1)*%
X159100000Y-91100000D03*
%TD*%
D12*
%TO.P,C3,1*%
%TO.N,+5VA*%
X162475000Y-78800000D03*
%TO.P,C3,2*%
%TO.N,GND1*%
X160925000Y-78800000D03*
%TD*%
D13*
%TO.P,C2,1*%
%TO.N,+5V*%
X152600000Y-75625000D03*
%TO.P,C2,2*%
%TO.N,GND*%
X152600000Y-77175000D03*
%TD*%
D14*
%TO.P,C1,1*%
%TO.N,+5VA*%
X151700000Y-85800000D03*
%TO.P,C1,2*%
%TO.N,GND1*%
X151700000Y-84250000D03*
%TD*%
D11*
%TO.P,U3,1,Pin_1*%
%TO.N,GND*%
X155340000Y-76800000D03*
D15*
%TO.P,U3,2,Pin_2*%
%TO.N,+5V*%
X157880000Y-76800000D03*
%TO.P,U3,3,Pin_3*%
%TO.N,GND1*%
X160420000Y-76800000D03*
%TO.P,U3,4,Pin_4*%
%TO.N,+5VA*%
X162960000Y-76800000D03*
%TD*%
D11*
%TO.P,J2,1,Pin_1*%
%TO.N,+3.3V*%
X139840000Y-76800000D03*
D15*
%TO.P,J2,2,Pin_2*%
%TO.N,+5V*%
X142380000Y-76800000D03*
%TO.P,J2,3,Pin_3*%
%TO.N,/Tx*%
X144920000Y-76800000D03*
%TO.P,J2,4,Pin_4*%
%TO.N,/Rx*%
X147460000Y-76800000D03*
%TO.P,J2,5,Pin_5*%
%TO.N,GND*%
X150000000Y-76800000D03*
%TD*%
D16*
%TO.P,R4,2*%
%TO.N,Net-(U1A-+)*%
X147000000Y-87225000D03*
%TO.P,R4,1*%
%TO.N,+5VA*%
X147000000Y-85575000D03*
%TD*%
D17*
%TO.P,R3,1*%
%TO.N,+3.3V*%
X139875000Y-78700000D03*
%TO.P,R3,2*%
%TO.N,/Rx*%
X141525000Y-78700000D03*
%TD*%
%TO.P,R2,1*%
%TO.N,Net-(U1A--)*%
X149275000Y-89200000D03*
%TO.P,R2,2*%
%TO.N,GND1*%
X150925000Y-89200000D03*
%TD*%
D16*
%TO.P,R1,1*%
%TO.N,+5VA*%
X148900000Y-85575000D03*
%TO.P,R1,2*%
%TO.N,Net-(U1A--)*%
X148900000Y-87225000D03*
%TD*%
D18*
%TO.N,+5V*%
X152600000Y-75100000D03*
%TO.N,GND1*%
X142100000Y-81300000D03*
X148000000Y-90400000D03*
%TO.N,GND*%
X142100000Y-90800000D03*
X148200000Y-80100000D03*
%TO.N,GND1*%
X157209303Y-88516593D03*
%TO.N,+5VA*%
X151572850Y-86502067D03*
X149200935Y-86325038D03*
%TO.N,Net-(U1A-+)*%
X147000000Y-87900000D03*
%TO.N,Net-(U1A--)*%
X149592466Y-87285878D03*
X149800000Y-89700000D03*
%TO.N,/Rx*%
X142200000Y-78550000D03*
%TD*%
D19*
%TO.N,GND1*%
X148500000Y-86400000D02*
X148000000Y-86400000D01*
X148000000Y-86400000D02*
X148000000Y-88000000D01*
X145800000Y-86400000D02*
X148000000Y-86400000D01*
D20*
X160700000Y-77080000D02*
X160420000Y-76800000D01*
X160700000Y-78575000D02*
X160700000Y-77080000D01*
X160925000Y-78800000D02*
X160700000Y-78575000D01*
%TO.N,+5VA*%
X162700000Y-77060000D02*
X162960000Y-76800000D01*
X162700000Y-78575000D02*
X162700000Y-77060000D01*
X162475000Y-78800000D02*
X162700000Y-78575000D01*
D21*
%TO.N,+5V*%
X152600000Y-75100000D02*
X152600000Y-75625000D01*
D19*
%TO.N,+5VA*%
X148900000Y-85575000D02*
X147000000Y-85575000D01*
X151572850Y-86502067D02*
X151572850Y-85802150D01*
X149200935Y-85875935D02*
X148900000Y-85575000D01*
X149200935Y-86325038D02*
X149200935Y-85875935D01*
D21*
%TO.N,Net-(U1A--)*%
X148960878Y-87285878D02*
X148900000Y-87225000D01*
X149592466Y-87285878D02*
X148960878Y-87285878D01*
%TO.N,Net-(U1A-+)*%
X147000000Y-87225000D02*
X147000000Y-87900000D01*
%TO.N,Net-(U1A--)*%
X149300000Y-89200000D02*
X149800000Y-89700000D01*
X149275000Y-89200000D02*
X149300000Y-89200000D01*
%TO.N,/Rx*%
X142050000Y-78700000D02*
X142200000Y-78550000D01*
X141525000Y-78700000D02*
X142050000Y-78700000D01*
D20*
%TO.N,+3.3V*%
X139840000Y-78665000D02*
X139875000Y-78700000D01*
X139840000Y-76800000D02*
X139840000Y-78665000D01*
%TD*%
%TA.AperFunction,Conductor*%
%TO.N,GND1*%
G36*
X148150519Y-86295185D02*
G01*
X148171073Y-86311731D01*
X148171573Y-86312230D01*
X148205120Y-86373520D01*
X148200205Y-86443216D01*
X148171662Y-86487680D01*
X148069528Y-86589814D01*
X148056116Y-86612001D01*
X148004588Y-86659188D01*
X147935729Y-86671026D01*
X147871400Y-86643757D01*
X147843884Y-86612001D01*
X147838488Y-86603075D01*
X147830472Y-86589815D01*
X147830471Y-86589814D01*
X147830468Y-86589810D01*
X147728338Y-86487680D01*
X147694853Y-86426357D01*
X147699837Y-86356665D01*
X147728511Y-86312145D01*
X147728763Y-86311893D01*
X147729014Y-86311644D01*
X147790404Y-86278281D01*
X147816520Y-86275500D01*
X148083480Y-86275500D01*
X148150519Y-86295185D01*
G37*
%TD.AperFunction*%
%TA.AperFunction,Conductor*%
G36*
X164542539Y-74920185D02*
G01*
X164588294Y-74972989D01*
X164599500Y-75024500D01*
X164599500Y-92275500D01*
X164579815Y-92342539D01*
X164527011Y-92388294D01*
X164475500Y-92399500D01*
X163398677Y-92399500D01*
X163331638Y-92379815D01*
X163285883Y-92327011D01*
X163275939Y-92257853D01*
X163283253Y-92234784D01*
X163282150Y-92234426D01*
X163285166Y-92225144D01*
X163300000Y-92131486D01*
X163300000Y-91900000D01*
X162530383Y-91900000D01*
X162599554Y-91860064D01*
X162660064Y-91799554D01*
X162702851Y-91725445D01*
X162725000Y-91642787D01*
X162725000Y-91557213D01*
X162702851Y-91474555D01*
X162660064Y-91400446D01*
X162599554Y-91339936D01*
X162525445Y-91297149D01*
X162442787Y-91275000D01*
X162357213Y-91275000D01*
X162274555Y-91297149D01*
X162200446Y-91339936D01*
X162139936Y-91400446D01*
X162097149Y-91474555D01*
X162075000Y-91557213D01*
X162075000Y-91642787D01*
X162097149Y-91725445D01*
X162139936Y-91799554D01*
X162200446Y-91860064D01*
X162269617Y-91900000D01*
X161500001Y-91900000D01*
X161500001Y-92131479D01*
X161514835Y-92225149D01*
X161517852Y-92234434D01*
X161514848Y-92235409D01*
X161524704Y-92287865D01*
X161498433Y-92352607D01*
X161441330Y-92392869D01*
X161401322Y-92399500D01*
X160486432Y-92399500D01*
X160419393Y-92379815D01*
X160373638Y-92327011D01*
X160363694Y-92257853D01*
X160387165Y-92201190D01*
X160390679Y-92196494D01*
X160393796Y-92192331D01*
X160444091Y-92057483D01*
X160450500Y-91997873D01*
X160450500Y-91300000D01*
X161500000Y-91300000D01*
X162100000Y-91300000D01*
X162100000Y-90700000D01*
X162700000Y-90700000D01*
X162700000Y-91300000D01*
X163299999Y-91300000D01*
X163299999Y-91068520D01*
X163285164Y-90974850D01*
X163285162Y-90974844D01*
X163227643Y-90861958D01*
X163227636Y-90861949D01*
X163138050Y-90772363D01*
X163138046Y-90772360D01*
X163025144Y-90714833D01*
X162931486Y-90700000D01*
X162700000Y-90700000D01*
X162100000Y-90700000D01*
X161868520Y-90700000D01*
X161774849Y-90714835D01*
X161774844Y-90714837D01*
X161661958Y-90772356D01*
X161661949Y-90772363D01*
X161572363Y-90861949D01*
X161572360Y-90861953D01*
X161514833Y-90974855D01*
X161500000Y-91068513D01*
X161500000Y-91300000D01*
X160450500Y-91300000D01*
X160450499Y-90202128D01*
X160444091Y-90142517D01*
X160413148Y-90059555D01*
X160393797Y-90007671D01*
X160393793Y-90007664D01*
X160307547Y-89892455D01*
X160307544Y-89892452D01*
X160192335Y-89806206D01*
X160192328Y-89806202D01*
X160057482Y-89755908D01*
X160057483Y-89755908D01*
X159997883Y-89749501D01*
X159997881Y-89749500D01*
X159997873Y-89749500D01*
X159997864Y-89749500D01*
X158202129Y-89749500D01*
X158202123Y-89749501D01*
X158142516Y-89755908D01*
X158007671Y-89806202D01*
X158007664Y-89806206D01*
X157892455Y-89892452D01*
X157892452Y-89892455D01*
X157806206Y-90007664D01*
X157806202Y-90007671D01*
X157755908Y-90142517D01*
X157750246Y-90195185D01*
X157749501Y-90202123D01*
X157749500Y-90202135D01*
X157749500Y-91997870D01*
X157749501Y-91997876D01*
X157755908Y-92057483D01*
X157806202Y-92192328D01*
X157806206Y-92192334D01*
X157812835Y-92201190D01*
X157837252Y-92266654D01*
X157822400Y-92334927D01*
X157772995Y-92384332D01*
X157713568Y-92399500D01*
X144529500Y-92399500D01*
X144462461Y-92379815D01*
X144416706Y-92327011D01*
X144405500Y-92275500D01*
X144405500Y-87481613D01*
X146024500Y-87481613D01*
X146030913Y-87552192D01*
X146081522Y-87714606D01*
X146169529Y-87860187D01*
X146171709Y-87862969D01*
X146172750Y-87865514D01*
X146173409Y-87866604D01*
X146173238Y-87866707D01*
X146197313Y-87925552D01*
X146214630Y-88079250D01*
X146214631Y-88079254D01*
X146274211Y-88249523D01*
X146331341Y-88340444D01*
X146370184Y-88402262D01*
X146497738Y-88529816D01*
X146586118Y-88585349D01*
X146645106Y-88622414D01*
X146650478Y-88625789D01*
X146677925Y-88635393D01*
X146820745Y-88685368D01*
X146820750Y-88685369D01*
X146999996Y-88705565D01*
X147000000Y-88705565D01*
X147000004Y-88705565D01*
X147179249Y-88685369D01*
X147179252Y-88685368D01*
X147179255Y-88685368D01*
X147349522Y-88625789D01*
X147502262Y-88529816D01*
X147629816Y-88402262D01*
X147725789Y-88249522D01*
X147785368Y-88079255D01*
X147786271Y-88071246D01*
X147802686Y-87925553D01*
X147826762Y-87866708D01*
X147826591Y-87866605D01*
X147827254Y-87865507D01*
X147828296Y-87862962D01*
X147830464Y-87860192D01*
X147830472Y-87860185D01*
X147843883Y-87837999D01*
X147895410Y-87790812D01*
X147964269Y-87778973D01*
X148028598Y-87806241D01*
X148056117Y-87838000D01*
X148069528Y-87860185D01*
X148069531Y-87860189D01*
X148189811Y-87980469D01*
X148189813Y-87980470D01*
X148189815Y-87980472D01*
X148335394Y-88068478D01*
X148497804Y-88119086D01*
X148568384Y-88125500D01*
X148568387Y-88125500D01*
X148598677Y-88125500D01*
X148665716Y-88145185D01*
X148711471Y-88197989D01*
X148721415Y-88267147D01*
X148692390Y-88330703D01*
X148662828Y-88355616D01*
X148639814Y-88369528D01*
X148639810Y-88369531D01*
X148519530Y-88489811D01*
X148431522Y-88635393D01*
X148380913Y-88797807D01*
X148374500Y-88868386D01*
X148374500Y-89531613D01*
X148380913Y-89602192D01*
X148431522Y-89764606D01*
X148519530Y-89910188D01*
X148639811Y-90030469D01*
X148639813Y-90030470D01*
X148639815Y-90030472D01*
X148785394Y-90118478D01*
X148947804Y-90169086D01*
X149018384Y-90175500D01*
X149092060Y-90175500D01*
X149159099Y-90195185D01*
X149179741Y-90211819D01*
X149297738Y-90329816D01*
X149450478Y-90425789D01*
X149620745Y-90485368D01*
X149620750Y-90485369D01*
X149799996Y-90505565D01*
X149800000Y-90505565D01*
X149800004Y-90505565D01*
X149979249Y-90485369D01*
X149979252Y-90485368D01*
X149979255Y-90485368D01*
X150149522Y-90425789D01*
X150302262Y-90329816D01*
X150429816Y-90202262D01*
X150480901Y-90120959D01*
X150533234Y-90074670D01*
X150602077Y-90063994D01*
X150624998Y-90067011D01*
X150625000Y-90067010D01*
X150625000Y-89500000D01*
X151225000Y-89500000D01*
X151225000Y-90067010D01*
X151225001Y-90067011D01*
X151281627Y-90059557D01*
X151281633Y-90059555D01*
X151427585Y-89999100D01*
X151552924Y-89902924D01*
X151649100Y-89777586D01*
X151709554Y-89631634D01*
X151709555Y-89631630D01*
X151724999Y-89514330D01*
X151725000Y-89514316D01*
X151725000Y-89500000D01*
X151225000Y-89500000D01*
X150625000Y-89500000D01*
X150625000Y-88332987D01*
X151225000Y-88332987D01*
X151225000Y-88900000D01*
X151724999Y-88900000D01*
X151724999Y-88885675D01*
X151709557Y-88768371D01*
X151709555Y-88768366D01*
X151649100Y-88622414D01*
X151552924Y-88497075D01*
X151427586Y-88400899D01*
X151281631Y-88340444D01*
X151225000Y-88332987D01*
X150625000Y-88332987D01*
X150568368Y-88340444D01*
X150422413Y-88400899D01*
X150297073Y-88497077D01*
X150260955Y-88544147D01*
X150204527Y-88585349D01*
X150134781Y-88589504D01*
X150073861Y-88555291D01*
X150056465Y-88532813D01*
X150030472Y-88489815D01*
X150030470Y-88489813D01*
X150030469Y-88489811D01*
X149910188Y-88369530D01*
X149910185Y-88369528D01*
X149772207Y-88286117D01*
X149725020Y-88234590D01*
X149713182Y-88165730D01*
X149740451Y-88101402D01*
X149795404Y-88062959D01*
X149810475Y-88057685D01*
X149941988Y-88011667D01*
X150094728Y-87915694D01*
X150222282Y-87788140D01*
X150318255Y-87635400D01*
X150377834Y-87465133D01*
X150395580Y-87307632D01*
X150398031Y-87285881D01*
X150398031Y-87285874D01*
X150377835Y-87106628D01*
X150377834Y-87106623D01*
X150370569Y-87085861D01*
X150318255Y-86936356D01*
X150293922Y-86897631D01*
X150264992Y-86851589D01*
X150222282Y-86783616D01*
X150094728Y-86656062D01*
X150043473Y-86623856D01*
X149997183Y-86571522D01*
X149986226Y-86504980D01*
X150006500Y-86325041D01*
X150006500Y-86325034D01*
X149986304Y-86145788D01*
X149986301Y-86145775D01*
X149960954Y-86073337D01*
X150724500Y-86073337D01*
X150724501Y-86073355D01*
X150734650Y-86172707D01*
X150734651Y-86172711D01*
X150778135Y-86303936D01*
X150783649Y-86356823D01*
X150767285Y-86502063D01*
X150767285Y-86502070D01*
X150787480Y-86681316D01*
X150787481Y-86681321D01*
X150847061Y-86851590D01*
X150920448Y-86968384D01*
X150943034Y-87004329D01*
X151070588Y-87131883D01*
X151223328Y-87227856D01*
X151389134Y-87285874D01*
X151393595Y-87287435D01*
X151393600Y-87287436D01*
X151572846Y-87307632D01*
X151572850Y-87307632D01*
X151572854Y-87307632D01*
X151752099Y-87287436D01*
X151752102Y-87287435D01*
X151752105Y-87287435D01*
X151922372Y-87227856D01*
X152075112Y-87131883D01*
X152202666Y-87004329D01*
X152298639Y-86851589D01*
X152358218Y-86681322D01*
X152358359Y-86680068D01*
X152358676Y-86679313D01*
X152359767Y-86674535D01*
X152360603Y-86674725D01*
X152385423Y-86615654D01*
X152398060Y-86603198D01*
X152397937Y-86603075D01*
X152429490Y-86571522D01*
X152522968Y-86478044D01*
X152612003Y-86333697D01*
X152665349Y-86172708D01*
X152675500Y-86073345D01*
X152675499Y-85526656D01*
X152665349Y-85427292D01*
X152612003Y-85266303D01*
X152611999Y-85266297D01*
X152611998Y-85266294D01*
X152522970Y-85121959D01*
X152522967Y-85121955D01*
X152442628Y-85041616D01*
X152409143Y-84980293D01*
X152414127Y-84910601D01*
X152442632Y-84866250D01*
X152447770Y-84861111D01*
X152447775Y-84861106D01*
X152528155Y-84725188D01*
X152528156Y-84725185D01*
X152572210Y-84573552D01*
X152572211Y-84573545D01*
X152574064Y-84550000D01*
X150825936Y-84550000D01*
X150827788Y-84573545D01*
X150827789Y-84573552D01*
X150871843Y-84725185D01*
X150871844Y-84725188D01*
X150952226Y-84861108D01*
X150952232Y-84861116D01*
X150957370Y-84866254D01*
X150990855Y-84927577D01*
X150985871Y-84997269D01*
X150957371Y-85041615D01*
X150877032Y-85121955D01*
X150877029Y-85121959D01*
X150788001Y-85266294D01*
X150787996Y-85266305D01*
X150734651Y-85427290D01*
X150724500Y-85526647D01*
X150724500Y-86073337D01*
X149960954Y-86073337D01*
X149926725Y-85975517D01*
X149920441Y-85965516D01*
X149901435Y-85899545D01*
X149901435Y-85806939D01*
X149877883Y-85688538D01*
X149875500Y-85664346D01*
X149875500Y-85318386D01*
X149869086Y-85247807D01*
X149869086Y-85247804D01*
X149818478Y-85085394D01*
X149730472Y-84939815D01*
X149730470Y-84939813D01*
X149730469Y-84939811D01*
X149610188Y-84819530D01*
X149464606Y-84731522D01*
X149444269Y-84725185D01*
X149302196Y-84680914D01*
X149302194Y-84680913D01*
X149302192Y-84680913D01*
X149252778Y-84676423D01*
X149231616Y-84674500D01*
X148568384Y-84674500D01*
X148549145Y-84676248D01*
X148497807Y-84680913D01*
X148335393Y-84731522D01*
X148189811Y-84819530D01*
X148189810Y-84819531D01*
X148171161Y-84838181D01*
X148109838Y-84871666D01*
X148083480Y-84874500D01*
X147816520Y-84874500D01*
X147749481Y-84854815D01*
X147728839Y-84838181D01*
X147710188Y-84819530D01*
X147564606Y-84731522D01*
X147544269Y-84725185D01*
X147402196Y-84680914D01*
X147402194Y-84680913D01*
X147402192Y-84680913D01*
X147352778Y-84676423D01*
X147331616Y-84674500D01*
X146668384Y-84674500D01*
X146649145Y-84676248D01*
X146597807Y-84680913D01*
X146435393Y-84731522D01*
X146289811Y-84819530D01*
X146169530Y-84939811D01*
X146081522Y-85085393D01*
X146030913Y-85247807D01*
X146024500Y-85318386D01*
X146024500Y-85831613D01*
X146030913Y-85902192D01*
X146030913Y-85902194D01*
X146030914Y-85902196D01*
X146081522Y-86064606D01*
X146130598Y-86145788D01*
X146169530Y-86210188D01*
X146271661Y-86312319D01*
X146305146Y-86373642D01*
X146300162Y-86443334D01*
X146271661Y-86487681D01*
X146169531Y-86589810D01*
X146169530Y-86589811D01*
X146081522Y-86735393D01*
X146030913Y-86897807D01*
X146024500Y-86968386D01*
X146024500Y-87481613D01*
X144405500Y-87481613D01*
X144405500Y-87166243D01*
X144402602Y-87112195D01*
X144402602Y-87112194D01*
X144399770Y-87085861D01*
X144399769Y-87085848D01*
X144399766Y-87085833D01*
X144399765Y-87085820D01*
X144391114Y-87032438D01*
X144391114Y-87032436D01*
X144355277Y-86936356D01*
X144340832Y-86897627D01*
X144307347Y-86836304D01*
X144307345Y-86836301D01*
X144221129Y-86721129D01*
X144900000Y-87400000D01*
X144900000Y-84700000D01*
X145864286Y-83950000D01*
X150825936Y-83950000D01*
X151400000Y-83950000D01*
X151400000Y-83400000D01*
X152000000Y-83400000D01*
X152000000Y-83950000D01*
X152574064Y-83950000D01*
X152572211Y-83926454D01*
X152572210Y-83926447D01*
X152528156Y-83774814D01*
X152528155Y-83774811D01*
X152447773Y-83638891D01*
X152447767Y-83638883D01*
X152336116Y-83527232D01*
X152336108Y-83527226D01*
X152200188Y-83446844D01*
X152200185Y-83446843D01*
X152048553Y-83402789D01*
X152048547Y-83402788D01*
X152013118Y-83400000D01*
X152000000Y-83400000D01*
X151400000Y-83400000D01*
X151386881Y-83400000D01*
X151351452Y-83402788D01*
X151351446Y-83402789D01*
X151199814Y-83446843D01*
X151199811Y-83446844D01*
X151063891Y-83527226D01*
X151063883Y-83527232D01*
X150952232Y-83638883D01*
X150952226Y-83638891D01*
X150871844Y-83774811D01*
X150871843Y-83774814D01*
X150827789Y-83926447D01*
X150827788Y-83926454D01*
X150825936Y-83950000D01*
X145864286Y-83950000D01*
X149400000Y-81200000D01*
X148593443Y-81200000D01*
X150021312Y-79900000D01*
X150864513Y-79132308D01*
X150927337Y-79101733D01*
X150947993Y-79100000D01*
X155499999Y-79100000D01*
X155500000Y-79100000D01*
X160075000Y-79100000D01*
X160075000Y-79113118D01*
X160077788Y-79148547D01*
X160077789Y-79148553D01*
X160121843Y-79300185D01*
X160121844Y-79300188D01*
X160202226Y-79436108D01*
X160202232Y-79436116D01*
X160313883Y-79547767D01*
X160313891Y-79547773D01*
X160449811Y-79628155D01*
X160449814Y-79628156D01*
X160601447Y-79672210D01*
X160601454Y-79672211D01*
X160625000Y-79674064D01*
X160625000Y-79100000D01*
X160075000Y-79100000D01*
X155500000Y-79100000D01*
X155592064Y-79001658D01*
X155636347Y-78971351D01*
X155729469Y-78933941D01*
X155789936Y-78898933D01*
X155902922Y-78809859D01*
X156095069Y-78607858D01*
X156103012Y-78599313D01*
X156106880Y-78595054D01*
X156114705Y-78586234D01*
X156192492Y-78465194D01*
X156221317Y-78402074D01*
X156221517Y-78401642D01*
X156224551Y-78391309D01*
X156244163Y-78324512D01*
X156272613Y-78274708D01*
X156457117Y-78077624D01*
X156473309Y-78063119D01*
X156547546Y-78007546D01*
X156633796Y-77892331D01*
X156633796Y-77892329D01*
X156639112Y-77885229D01*
X156639638Y-77885622D01*
X156649049Y-77872606D01*
X156751809Y-77762840D01*
X156811993Y-77727355D01*
X156881811Y-77730040D01*
X156930010Y-77759906D01*
X157008599Y-77838495D01*
X157057315Y-77872606D01*
X157202165Y-77974032D01*
X157202167Y-77974033D01*
X157202170Y-77974035D01*
X157416337Y-78073903D01*
X157644592Y-78135063D01*
X157832918Y-78151539D01*
X157879999Y-78155659D01*
X157880000Y-78155659D01*
X157880001Y-78155659D01*
X157919234Y-78152226D01*
X158115408Y-78135063D01*
X158343663Y-78073903D01*
X158557830Y-77974035D01*
X158751401Y-77838495D01*
X158918495Y-77671401D01*
X159054035Y-77477830D01*
X159093064Y-77394130D01*
X159139233Y-77341695D01*
X159206427Y-77322543D01*
X159273308Y-77342758D01*
X159317825Y-77394133D01*
X159333330Y-77427382D01*
X159333332Y-77427386D01*
X159458787Y-77606554D01*
X159613445Y-77761212D01*
X159792612Y-77886666D01*
X159990840Y-77979101D01*
X159990849Y-77979105D01*
X160109848Y-78010990D01*
X160169508Y-78047354D01*
X160200038Y-78110201D01*
X160191744Y-78179577D01*
X160184488Y-78193885D01*
X160121843Y-78299813D01*
X160121843Y-78299814D01*
X160077789Y-78451446D01*
X160077788Y-78451452D01*
X160075000Y-78486881D01*
X160075000Y-78500000D01*
X161101000Y-78500000D01*
X161168039Y-78519685D01*
X161213794Y-78572489D01*
X161225000Y-78624000D01*
X161225000Y-79674063D01*
X161248545Y-79672211D01*
X161248552Y-79672210D01*
X161400185Y-79628156D01*
X161400188Y-79628155D01*
X161536106Y-79547775D01*
X161536111Y-79547770D01*
X161541250Y-79542632D01*
X161602571Y-79509144D01*
X161672263Y-79514125D01*
X161716616Y-79542628D01*
X161796955Y-79622967D01*
X161796959Y-79622970D01*
X161941294Y-79711998D01*
X161941297Y-79711999D01*
X161941303Y-79712003D01*
X162102292Y-79765349D01*
X162201655Y-79775500D01*
X162748344Y-79775499D01*
X162748352Y-79775498D01*
X162748355Y-79775498D01*
X162802760Y-79769940D01*
X162847708Y-79765349D01*
X163008697Y-79712003D01*
X163153044Y-79622968D01*
X163272968Y-79503044D01*
X163362003Y-79358697D01*
X163415349Y-79197708D01*
X163425500Y-79098345D01*
X163425499Y-78786812D01*
X163427882Y-78762620D01*
X163430330Y-78750317D01*
X163450500Y-78648918D01*
X163450500Y-78140384D01*
X163470185Y-78073345D01*
X163522095Y-78028002D01*
X163637830Y-77974035D01*
X163831401Y-77838495D01*
X163998495Y-77671401D01*
X164134035Y-77477830D01*
X164233903Y-77263663D01*
X164295063Y-77035408D01*
X164315659Y-76800000D01*
X164295063Y-76564592D01*
X164233903Y-76336337D01*
X164134035Y-76122171D01*
X164059511Y-76015738D01*
X163998494Y-75928597D01*
X163831402Y-75761506D01*
X163831395Y-75761501D01*
X163637834Y-75625967D01*
X163637830Y-75625965D01*
X163626957Y-75620895D01*
X163423663Y-75526097D01*
X163423659Y-75526096D01*
X163423655Y-75526094D01*
X163195413Y-75464938D01*
X163195403Y-75464936D01*
X162960001Y-75444341D01*
X162959999Y-75444341D01*
X162724596Y-75464936D01*
X162724586Y-75464938D01*
X162496344Y-75526094D01*
X162496335Y-75526098D01*
X162282171Y-75625964D01*
X162282169Y-75625965D01*
X162088597Y-75761505D01*
X161921505Y-75928597D01*
X161785966Y-76122168D01*
X161746936Y-76205867D01*
X161700763Y-76258306D01*
X161633569Y-76277457D01*
X161566688Y-76257241D01*
X161522171Y-76205864D01*
X161506665Y-76172611D01*
X161506664Y-76172608D01*
X161381216Y-75993450D01*
X161381211Y-75993444D01*
X161226554Y-75838787D01*
X161047387Y-75713333D01*
X160849159Y-75620898D01*
X160849153Y-75620895D01*
X160720000Y-75586289D01*
X160720000Y-76395855D01*
X160612993Y-76334075D01*
X160485826Y-76300000D01*
X160354174Y-76300000D01*
X160227007Y-76334075D01*
X160120000Y-76395855D01*
X160120000Y-75586289D01*
X160119999Y-75586289D01*
X159990846Y-75620895D01*
X159990840Y-75620898D01*
X159792612Y-75713333D01*
X159792608Y-75713335D01*
X159613450Y-75838783D01*
X159613444Y-75838788D01*
X159458788Y-75993444D01*
X159458783Y-75993450D01*
X159333335Y-76172608D01*
X159333333Y-76172612D01*
X159317827Y-76205866D01*
X159271654Y-76258305D01*
X159204461Y-76277457D01*
X159137580Y-76257241D01*
X159093063Y-76205866D01*
X159054035Y-76122171D01*
X159054034Y-76122169D01*
X158918494Y-75928597D01*
X158863144Y-75873247D01*
X158829659Y-75811924D01*
X158834643Y-75742232D01*
X158860978Y-75700105D01*
X159090931Y-75458362D01*
X159098914Y-75449772D01*
X159102782Y-75445512D01*
X159110568Y-75436735D01*
X159188355Y-75315695D01*
X159217202Y-75252528D01*
X159217377Y-75252148D01*
X159217380Y-75252139D01*
X159217382Y-75252136D01*
X159257916Y-75114083D01*
X159257915Y-75114080D01*
X159260414Y-75105573D01*
X159263096Y-75106360D01*
X159286170Y-75055815D01*
X159289333Y-75052302D01*
X159394697Y-74939754D01*
X159454884Y-74904268D01*
X159485219Y-74900500D01*
X164475500Y-74900500D01*
X164542539Y-74920185D01*
G37*
%TD.AperFunction*%
%TD*%
%TA.AperFunction,Conductor*%
%TO.N,GND*%
G36*
X151650550Y-74920185D02*
G01*
X151696305Y-74972989D01*
X151706249Y-75042147D01*
X151690839Y-75084656D01*
X151691051Y-75084755D01*
X151689940Y-75087135D01*
X151689048Y-75089599D01*
X151688000Y-75091296D01*
X151687996Y-75091305D01*
X151634651Y-75252290D01*
X151624500Y-75351647D01*
X151624500Y-75898337D01*
X151624501Y-75898355D01*
X151634650Y-75997707D01*
X151634651Y-75997710D01*
X151687996Y-76158694D01*
X151688001Y-76158705D01*
X151777029Y-76303040D01*
X151777032Y-76303044D01*
X151857371Y-76383383D01*
X151890856Y-76444706D01*
X151885872Y-76514398D01*
X151857375Y-76558741D01*
X151852233Y-76563883D01*
X151852224Y-76563894D01*
X151771844Y-76699811D01*
X151771843Y-76699814D01*
X151727789Y-76851447D01*
X151727788Y-76851454D01*
X151725936Y-76875000D01*
X153474064Y-76875000D01*
X153472211Y-76851454D01*
X153472210Y-76851447D01*
X153428156Y-76699814D01*
X153428155Y-76699811D01*
X153347773Y-76563891D01*
X153347768Y-76563885D01*
X153342632Y-76558749D01*
X153309144Y-76497428D01*
X153314125Y-76427736D01*
X153342624Y-76383387D01*
X153422968Y-76303044D01*
X153512003Y-76158697D01*
X153565349Y-75997708D01*
X153575500Y-75898345D01*
X153575499Y-75351656D01*
X153565349Y-75252292D01*
X153512003Y-75091303D01*
X153510952Y-75089599D01*
X153510588Y-75088271D01*
X153508949Y-75084755D01*
X153509549Y-75084474D01*
X153492510Y-75022207D01*
X153513431Y-74955543D01*
X153567072Y-74910772D01*
X153616489Y-74900500D01*
X158634823Y-74900500D01*
X158701862Y-74920185D01*
X158747617Y-74972989D01*
X158757561Y-75042147D01*
X158728536Y-75105703D01*
X158724668Y-75109963D01*
X158382620Y-75469550D01*
X158322153Y-75504557D01*
X158260682Y-75503862D01*
X158115413Y-75464938D01*
X158115403Y-75464936D01*
X157880001Y-75444341D01*
X157879999Y-75444341D01*
X157644596Y-75464936D01*
X157644586Y-75464938D01*
X157416344Y-75526094D01*
X157416335Y-75526098D01*
X157202171Y-75625964D01*
X157202169Y-75625965D01*
X157008597Y-75761505D01*
X156841504Y-75928598D01*
X156813732Y-75968261D01*
X156759155Y-76011886D01*
X156689656Y-76019078D01*
X156627302Y-75987555D01*
X156591889Y-75927325D01*
X156589684Y-75916533D01*
X156575164Y-75824850D01*
X156575162Y-75824844D01*
X156517643Y-75711958D01*
X156517636Y-75711949D01*
X156428050Y-75622363D01*
X156428046Y-75622360D01*
X156315144Y-75564833D01*
X156221486Y-75550000D01*
X155640000Y-75550000D01*
X155640000Y-76395855D01*
X155532993Y-76334075D01*
X155405826Y-76300000D01*
X155274174Y-76300000D01*
X155147007Y-76334075D01*
X155040000Y-76395855D01*
X155040000Y-75550000D01*
X154458520Y-75550000D01*
X154364850Y-75564835D01*
X154364844Y-75564837D01*
X154251958Y-75622356D01*
X154251949Y-75622363D01*
X154162363Y-75711949D01*
X154162360Y-75711953D01*
X154104833Y-75824855D01*
X154090000Y-75918513D01*
X154090000Y-76500000D01*
X154935856Y-76500000D01*
X154874075Y-76607007D01*
X154840000Y-76734174D01*
X154840000Y-76865826D01*
X154874075Y-76992993D01*
X154935856Y-77100000D01*
X154090001Y-77100000D01*
X154090001Y-77681479D01*
X154104835Y-77775149D01*
X154104837Y-77775155D01*
X154162356Y-77888041D01*
X154162363Y-77888050D01*
X154251949Y-77977636D01*
X154251953Y-77977639D01*
X154364855Y-78035166D01*
X154458514Y-78049999D01*
X155039999Y-78049999D01*
X155040000Y-78049998D01*
X155040000Y-77204144D01*
X155147007Y-77265925D01*
X155274174Y-77300000D01*
X155405826Y-77300000D01*
X155532993Y-77265925D01*
X155640000Y-77204144D01*
X155640000Y-78049999D01*
X155640432Y-78050431D01*
X155705999Y-78069684D01*
X155751754Y-78122488D01*
X155761698Y-78191646D01*
X155732673Y-78255202D01*
X155728805Y-78259461D01*
X155536658Y-78461462D01*
X155476191Y-78496470D01*
X155446813Y-78500000D01*
X150699999Y-78500000D01*
X148435516Y-80567572D01*
X148372736Y-80598238D01*
X148351907Y-80600000D01*
X144651362Y-80600000D01*
X144584323Y-80580315D01*
X144563681Y-80563681D01*
X143300000Y-79300000D01*
X142881440Y-79300000D01*
X142814401Y-79280315D01*
X142768646Y-79227511D01*
X142758702Y-79158353D01*
X142787727Y-79094797D01*
X142793759Y-79088319D01*
X142829816Y-79052262D01*
X142925789Y-78899522D01*
X142985368Y-78729255D01*
X143005565Y-78550000D01*
X142999931Y-78500000D01*
X142985369Y-78370750D01*
X142985368Y-78370745D01*
X142925789Y-78200478D01*
X142920425Y-78191941D01*
X142901423Y-78124708D01*
X142921788Y-78057872D01*
X142973009Y-78013587D01*
X143057830Y-77974035D01*
X143251401Y-77838495D01*
X143418495Y-77671401D01*
X143548425Y-77485842D01*
X143603002Y-77442217D01*
X143672500Y-77435023D01*
X143734855Y-77466546D01*
X143751575Y-77485842D01*
X143881500Y-77671395D01*
X143881505Y-77671401D01*
X144048599Y-77838495D01*
X144133248Y-77897767D01*
X144242165Y-77974032D01*
X144242167Y-77974033D01*
X144242170Y-77974035D01*
X144456337Y-78073903D01*
X144684592Y-78135063D01*
X144861034Y-78150500D01*
X144919999Y-78155659D01*
X144920000Y-78155659D01*
X144920001Y-78155659D01*
X144978966Y-78150500D01*
X145155408Y-78135063D01*
X145383663Y-78073903D01*
X145597830Y-77974035D01*
X145791401Y-77838495D01*
X145958495Y-77671401D01*
X146088425Y-77485842D01*
X146143002Y-77442217D01*
X146212500Y-77435023D01*
X146274855Y-77466546D01*
X146291575Y-77485842D01*
X146421500Y-77671395D01*
X146421505Y-77671401D01*
X146588599Y-77838495D01*
X146673248Y-77897767D01*
X146782165Y-77974032D01*
X146782167Y-77974033D01*
X146782170Y-77974035D01*
X146996337Y-78073903D01*
X147224592Y-78135063D01*
X147401034Y-78150500D01*
X147459999Y-78155659D01*
X147460000Y-78155659D01*
X147460001Y-78155659D01*
X147518966Y-78150500D01*
X147695408Y-78135063D01*
X147923663Y-78073903D01*
X148137830Y-77974035D01*
X148331401Y-77838495D01*
X148498495Y-77671401D01*
X148634035Y-77477830D01*
X148673064Y-77394130D01*
X148719233Y-77341695D01*
X148786427Y-77322543D01*
X148853308Y-77342758D01*
X148897825Y-77394133D01*
X148913330Y-77427382D01*
X148913332Y-77427386D01*
X149038787Y-77606554D01*
X149193445Y-77761212D01*
X149372612Y-77886666D01*
X149570840Y-77979101D01*
X149570851Y-77979106D01*
X149699999Y-78013710D01*
X149700000Y-78013709D01*
X149700000Y-77204144D01*
X149807007Y-77265925D01*
X149934174Y-77300000D01*
X150065826Y-77300000D01*
X150192993Y-77265925D01*
X150300000Y-77204144D01*
X150300000Y-78013710D01*
X150429148Y-77979106D01*
X150429159Y-77979101D01*
X150627387Y-77886666D01*
X150806554Y-77761212D01*
X150961212Y-77606554D01*
X151053327Y-77475000D01*
X151725936Y-77475000D01*
X151727788Y-77498545D01*
X151727789Y-77498552D01*
X151771843Y-77650185D01*
X151771844Y-77650188D01*
X151852226Y-77786108D01*
X151852232Y-77786116D01*
X151963883Y-77897767D01*
X151963891Y-77897773D01*
X152099811Y-77978155D01*
X152099814Y-77978156D01*
X152251446Y-78022210D01*
X152251452Y-78022211D01*
X152286881Y-78024999D01*
X152286894Y-78025000D01*
X152300000Y-78025000D01*
X152300000Y-77475000D01*
X152900000Y-77475000D01*
X152900000Y-78025000D01*
X152913106Y-78025000D01*
X152913118Y-78024999D01*
X152948547Y-78022211D01*
X152948553Y-78022210D01*
X153100185Y-77978156D01*
X153100188Y-77978155D01*
X153236108Y-77897773D01*
X153236116Y-77897767D01*
X153347767Y-77786116D01*
X153347773Y-77786108D01*
X153428155Y-77650188D01*
X153428156Y-77650185D01*
X153472210Y-77498552D01*
X153472211Y-77498545D01*
X153474064Y-77475000D01*
X152900000Y-77475000D01*
X152300000Y-77475000D01*
X151725936Y-77475000D01*
X151053327Y-77475000D01*
X151086666Y-77427387D01*
X151179101Y-77229159D01*
X151179104Y-77229153D01*
X151213711Y-77100000D01*
X150404144Y-77100000D01*
X150465925Y-76992993D01*
X150500000Y-76865826D01*
X150500000Y-76734174D01*
X150465925Y-76607007D01*
X150404144Y-76500000D01*
X151213711Y-76500000D01*
X151213710Y-76499999D01*
X151179104Y-76370846D01*
X151179101Y-76370840D01*
X151086666Y-76172612D01*
X151086664Y-76172608D01*
X150961216Y-75993450D01*
X150961211Y-75993444D01*
X150806554Y-75838787D01*
X150627387Y-75713333D01*
X150429159Y-75620898D01*
X150429153Y-75620895D01*
X150300000Y-75586289D01*
X150300000Y-76395855D01*
X150192993Y-76334075D01*
X150065826Y-76300000D01*
X149934174Y-76300000D01*
X149807007Y-76334075D01*
X149700000Y-76395855D01*
X149700000Y-75586289D01*
X149699999Y-75586289D01*
X149570846Y-75620895D01*
X149570840Y-75620898D01*
X149372612Y-75713333D01*
X149372608Y-75713335D01*
X149193450Y-75838783D01*
X149193444Y-75838788D01*
X149038788Y-75993444D01*
X149038783Y-75993450D01*
X148913335Y-76172608D01*
X148913333Y-76172612D01*
X148897827Y-76205866D01*
X148851654Y-76258305D01*
X148784461Y-76277457D01*
X148717580Y-76257241D01*
X148673063Y-76205866D01*
X148634035Y-76122171D01*
X148634034Y-76122169D01*
X148498494Y-75928597D01*
X148331402Y-75761506D01*
X148331395Y-75761501D01*
X148137834Y-75625967D01*
X148137830Y-75625965D01*
X148137828Y-75625964D01*
X147923663Y-75526097D01*
X147923659Y-75526096D01*
X147923655Y-75526094D01*
X147695413Y-75464938D01*
X147695403Y-75464936D01*
X147460001Y-75444341D01*
X147459999Y-75444341D01*
X147224596Y-75464936D01*
X147224586Y-75464938D01*
X146996344Y-75526094D01*
X146996335Y-75526098D01*
X146782171Y-75625964D01*
X146782169Y-75625965D01*
X146588597Y-75761505D01*
X146421505Y-75928597D01*
X146291575Y-76114158D01*
X146236998Y-76157783D01*
X146167500Y-76164977D01*
X146105145Y-76133454D01*
X146088425Y-76114158D01*
X145958494Y-75928597D01*
X145791402Y-75761506D01*
X145791395Y-75761501D01*
X145597834Y-75625967D01*
X145597830Y-75625965D01*
X145597828Y-75625964D01*
X145383663Y-75526097D01*
X145383659Y-75526096D01*
X145383655Y-75526094D01*
X145155413Y-75464938D01*
X145155403Y-75464936D01*
X144920001Y-75444341D01*
X144919999Y-75444341D01*
X144684596Y-75464936D01*
X144684586Y-75464938D01*
X144456344Y-75526094D01*
X144456335Y-75526098D01*
X144242171Y-75625964D01*
X144242169Y-75625965D01*
X144048597Y-75761505D01*
X143881505Y-75928597D01*
X143751575Y-76114158D01*
X143696998Y-76157783D01*
X143627500Y-76164977D01*
X143565145Y-76133454D01*
X143548425Y-76114158D01*
X143418494Y-75928597D01*
X143251402Y-75761506D01*
X143251395Y-75761501D01*
X143057834Y-75625967D01*
X143057830Y-75625965D01*
X143057828Y-75625964D01*
X142843663Y-75526097D01*
X142843659Y-75526096D01*
X142843655Y-75526094D01*
X142615413Y-75464938D01*
X142615403Y-75464936D01*
X142380001Y-75444341D01*
X142379999Y-75444341D01*
X142144596Y-75464936D01*
X142144586Y-75464938D01*
X141916344Y-75526094D01*
X141916335Y-75526098D01*
X141702171Y-75625964D01*
X141702169Y-75625965D01*
X141508600Y-75761503D01*
X141386673Y-75883430D01*
X141325350Y-75916914D01*
X141255658Y-75911930D01*
X141199725Y-75870058D01*
X141182810Y-75839081D01*
X141133797Y-75707671D01*
X141133793Y-75707664D01*
X141047547Y-75592455D01*
X141047544Y-75592452D01*
X140932335Y-75506206D01*
X140932328Y-75506202D01*
X140797482Y-75455908D01*
X140797483Y-75455908D01*
X140737883Y-75449501D01*
X140737881Y-75449500D01*
X140737873Y-75449500D01*
X140737864Y-75449500D01*
X138942129Y-75449500D01*
X138942123Y-75449501D01*
X138882516Y-75455908D01*
X138747671Y-75506202D01*
X138747664Y-75506206D01*
X138632455Y-75592452D01*
X138632452Y-75592455D01*
X138546206Y-75707664D01*
X138546202Y-75707671D01*
X138495908Y-75842517D01*
X138489501Y-75902116D01*
X138489500Y-75902135D01*
X138489500Y-77697870D01*
X138489501Y-77697876D01*
X138495908Y-77757483D01*
X138546202Y-77892328D01*
X138546206Y-77892335D01*
X138632452Y-78007544D01*
X138632455Y-78007547D01*
X138747664Y-78093793D01*
X138747671Y-78093797D01*
X138800927Y-78113660D01*
X138882517Y-78144091D01*
X138882527Y-78144092D01*
X138889331Y-78145700D01*
X138950050Y-78180270D01*
X138982439Y-78242178D01*
X138979899Y-78290906D01*
X138982195Y-78291363D01*
X138980914Y-78297803D01*
X138974500Y-78368386D01*
X138974500Y-79031613D01*
X138980914Y-79102196D01*
X138992417Y-79139112D01*
X138993567Y-79208972D01*
X138956765Y-79268364D01*
X138893696Y-79298431D01*
X138874031Y-79300000D01*
X138800000Y-79300000D01*
X138800000Y-79644498D01*
X138788794Y-79696010D01*
X138734664Y-79814534D01*
X138714976Y-79881582D01*
X138694500Y-80024001D01*
X138694500Y-81648640D01*
X138697397Y-81702688D01*
X138697397Y-81702689D01*
X138700229Y-81729022D01*
X138700232Y-81729049D01*
X138708885Y-81782445D01*
X138708885Y-81782447D01*
X138759166Y-81917252D01*
X138759168Y-81917257D01*
X138792653Y-81978580D01*
X138878877Y-82093761D01*
X138878881Y-82093765D01*
X138878886Y-82093771D01*
X143863681Y-87078565D01*
X143897166Y-87139888D01*
X143900000Y-87166246D01*
X143900000Y-92275500D01*
X143880315Y-92342539D01*
X143827511Y-92388294D01*
X143776000Y-92399500D01*
X136724500Y-92399500D01*
X136657461Y-92379815D01*
X136611706Y-92327011D01*
X136600500Y-92275500D01*
X136600500Y-75024500D01*
X136620185Y-74957461D01*
X136672989Y-74911706D01*
X136724500Y-74900500D01*
X151583511Y-74900500D01*
X151650550Y-74920185D01*
G37*
%TD.AperFunction*%
%TD*%
%TA.AperFunction,Conductor*%
%TO.N,GND1*%
G36*
X143015677Y-79919685D02*
G01*
X143036319Y-79936319D01*
X144300000Y-81200000D01*
X149400000Y-81200000D01*
X144900000Y-84700000D01*
X144900000Y-87400000D01*
X139236319Y-81736319D01*
X139202834Y-81674996D01*
X139200000Y-81648638D01*
X139200000Y-80024000D01*
X139219685Y-79956961D01*
X139272489Y-79911206D01*
X139324000Y-79900000D01*
X142948638Y-79900000D01*
X143015677Y-79919685D01*
G37*
%TD.AperFunction*%
%TD*%
M02*
