%TF.GenerationSoftware,KiCad,Pcbnew,8.0.1*%
%TF.CreationDate,2025-01-27T15:49:22-05:00*%
%TF.ProjectId,PHY,5048592e-6b69-4636-9164-5f7063625858,rev?*%
%TF.SameCoordinates,Original*%
%TF.FileFunction,Legend,Top*%
%TF.FilePolarity,Positive*%
%FSLAX46Y46*%
G04 Gerber Fmt 4.6, Leading zero omitted, Abs format (unit mm)*
G04 Created by KiCad (PCBNEW 8.0.1) date 2025-01-27 15:49:22*
%MOMM*%
%LPD*%
G01*
G04 APERTURE LIST*
%ADD10C,0.150000*%
%ADD11C,0.120000*%
G04 APERTURE END LIST*
D10*
X156766666Y-90679819D02*
X156766666Y-91394104D01*
X156766666Y-91394104D02*
X156719047Y-91536961D01*
X156719047Y-91536961D02*
X156623809Y-91632200D01*
X156623809Y-91632200D02*
X156480952Y-91679819D01*
X156480952Y-91679819D02*
X156385714Y-91679819D01*
X157671428Y-91013152D02*
X157671428Y-91679819D01*
X157433333Y-90632200D02*
X157195238Y-91346485D01*
X157195238Y-91346485D02*
X157814285Y-91346485D01*
X163116666Y-80479819D02*
X163116666Y-81194104D01*
X163116666Y-81194104D02*
X163069047Y-81336961D01*
X163069047Y-81336961D02*
X162973809Y-81432200D01*
X162973809Y-81432200D02*
X162830952Y-81479819D01*
X162830952Y-81479819D02*
X162735714Y-81479819D01*
X164116666Y-81479819D02*
X163545238Y-81479819D01*
X163830952Y-81479819D02*
X163830952Y-80479819D01*
X163830952Y-80479819D02*
X163735714Y-80622676D01*
X163735714Y-80622676D02*
X163640476Y-80717914D01*
X163640476Y-80717914D02*
X163545238Y-80765533D01*
X153613095Y-79404819D02*
X153613095Y-80214342D01*
X153613095Y-80214342D02*
X153660714Y-80309580D01*
X153660714Y-80309580D02*
X153708333Y-80357200D01*
X153708333Y-80357200D02*
X153803571Y-80404819D01*
X153803571Y-80404819D02*
X153994047Y-80404819D01*
X153994047Y-80404819D02*
X154089285Y-80357200D01*
X154089285Y-80357200D02*
X154136904Y-80309580D01*
X154136904Y-80309580D02*
X154184523Y-80214342D01*
X154184523Y-80214342D02*
X154184523Y-79404819D01*
X154565476Y-79404819D02*
X155184523Y-79404819D01*
X155184523Y-79404819D02*
X154851190Y-79785771D01*
X154851190Y-79785771D02*
X154994047Y-79785771D01*
X154994047Y-79785771D02*
X155089285Y-79833390D01*
X155089285Y-79833390D02*
X155136904Y-79881009D01*
X155136904Y-79881009D02*
X155184523Y-79976247D01*
X155184523Y-79976247D02*
X155184523Y-80214342D01*
X155184523Y-80214342D02*
X155136904Y-80309580D01*
X155136904Y-80309580D02*
X155089285Y-80357200D01*
X155089285Y-80357200D02*
X154994047Y-80404819D01*
X154994047Y-80404819D02*
X154708333Y-80404819D01*
X154708333Y-80404819D02*
X154613095Y-80357200D01*
X154613095Y-80357200D02*
X154565476Y-80309580D01*
X136841666Y-76254819D02*
X136841666Y-76969104D01*
X136841666Y-76969104D02*
X136794047Y-77111961D01*
X136794047Y-77111961D02*
X136698809Y-77207200D01*
X136698809Y-77207200D02*
X136555952Y-77254819D01*
X136555952Y-77254819D02*
X136460714Y-77254819D01*
X137270238Y-76350057D02*
X137317857Y-76302438D01*
X137317857Y-76302438D02*
X137413095Y-76254819D01*
X137413095Y-76254819D02*
X137651190Y-76254819D01*
X137651190Y-76254819D02*
X137746428Y-76302438D01*
X137746428Y-76302438D02*
X137794047Y-76350057D01*
X137794047Y-76350057D02*
X137841666Y-76445295D01*
X137841666Y-76445295D02*
X137841666Y-76540533D01*
X137841666Y-76540533D02*
X137794047Y-76683390D01*
X137794047Y-76683390D02*
X137222619Y-77254819D01*
X137222619Y-77254819D02*
X137841666Y-77254819D01*
X136463095Y-84354819D02*
X136463095Y-85164342D01*
X136463095Y-85164342D02*
X136510714Y-85259580D01*
X136510714Y-85259580D02*
X136558333Y-85307200D01*
X136558333Y-85307200D02*
X136653571Y-85354819D01*
X136653571Y-85354819D02*
X136844047Y-85354819D01*
X136844047Y-85354819D02*
X136939285Y-85307200D01*
X136939285Y-85307200D02*
X136986904Y-85259580D01*
X136986904Y-85259580D02*
X137034523Y-85164342D01*
X137034523Y-85164342D02*
X137034523Y-84354819D01*
X137463095Y-84450057D02*
X137510714Y-84402438D01*
X137510714Y-84402438D02*
X137605952Y-84354819D01*
X137605952Y-84354819D02*
X137844047Y-84354819D01*
X137844047Y-84354819D02*
X137939285Y-84402438D01*
X137939285Y-84402438D02*
X137986904Y-84450057D01*
X137986904Y-84450057D02*
X138034523Y-84545295D01*
X138034523Y-84545295D02*
X138034523Y-84640533D01*
X138034523Y-84640533D02*
X137986904Y-84783390D01*
X137986904Y-84783390D02*
X137415476Y-85354819D01*
X137415476Y-85354819D02*
X138034523Y-85354819D01*
X149763095Y-83154819D02*
X149763095Y-83964342D01*
X149763095Y-83964342D02*
X149810714Y-84059580D01*
X149810714Y-84059580D02*
X149858333Y-84107200D01*
X149858333Y-84107200D02*
X149953571Y-84154819D01*
X149953571Y-84154819D02*
X150144047Y-84154819D01*
X150144047Y-84154819D02*
X150239285Y-84107200D01*
X150239285Y-84107200D02*
X150286904Y-84059580D01*
X150286904Y-84059580D02*
X150334523Y-83964342D01*
X150334523Y-83964342D02*
X150334523Y-83154819D01*
X151334523Y-84154819D02*
X150763095Y-84154819D01*
X151048809Y-84154819D02*
X151048809Y-83154819D01*
X151048809Y-83154819D02*
X150953571Y-83297676D01*
X150953571Y-83297676D02*
X150858333Y-83392914D01*
X150858333Y-83392914D02*
X150763095Y-83440533D01*
X137058333Y-91729819D02*
X136725000Y-91253628D01*
X136486905Y-91729819D02*
X136486905Y-90729819D01*
X136486905Y-90729819D02*
X136867857Y-90729819D01*
X136867857Y-90729819D02*
X136963095Y-90777438D01*
X136963095Y-90777438D02*
X137010714Y-90825057D01*
X137010714Y-90825057D02*
X137058333Y-90920295D01*
X137058333Y-90920295D02*
X137058333Y-91063152D01*
X137058333Y-91063152D02*
X137010714Y-91158390D01*
X137010714Y-91158390D02*
X136963095Y-91206009D01*
X136963095Y-91206009D02*
X136867857Y-91253628D01*
X136867857Y-91253628D02*
X136486905Y-91253628D01*
X137963095Y-90729819D02*
X137486905Y-90729819D01*
X137486905Y-90729819D02*
X137439286Y-91206009D01*
X137439286Y-91206009D02*
X137486905Y-91158390D01*
X137486905Y-91158390D02*
X137582143Y-91110771D01*
X137582143Y-91110771D02*
X137820238Y-91110771D01*
X137820238Y-91110771D02*
X137915476Y-91158390D01*
X137915476Y-91158390D02*
X137963095Y-91206009D01*
X137963095Y-91206009D02*
X138010714Y-91301247D01*
X138010714Y-91301247D02*
X138010714Y-91539342D01*
X138010714Y-91539342D02*
X137963095Y-91634580D01*
X137963095Y-91634580D02*
X137915476Y-91682200D01*
X137915476Y-91682200D02*
X137820238Y-91729819D01*
X137820238Y-91729819D02*
X137582143Y-91729819D01*
X137582143Y-91729819D02*
X137486905Y-91682200D01*
X137486905Y-91682200D02*
X137439286Y-91634580D01*
D11*
%TO.C,J3*%
X161290000Y-90840000D02*
X162400000Y-90840000D01*
X161290000Y-91600000D02*
X161290000Y-90840000D01*
X161290000Y-92360000D02*
X161290000Y-92295000D01*
X161290000Y-92360000D02*
X161836529Y-92360000D01*
X161290000Y-92360000D02*
X163510000Y-92360000D01*
X162963471Y-92360000D02*
X163510000Y-92360000D01*
X163510000Y-92360000D02*
X163510000Y-92295000D01*
%TO.C,J4*%
X157770000Y-92310000D02*
X157770000Y-92430000D01*
X157770000Y-92430000D02*
X160430000Y-92430000D01*
X159100000Y-89770000D02*
X160430000Y-89770000D01*
X160430000Y-89770000D02*
X160430000Y-91100000D01*
X160430000Y-92310000D02*
X160430000Y-92430000D01*
%TO.C,J1*%
X158160000Y-80140000D02*
X159370000Y-80140000D01*
X159370000Y-79470000D02*
X159370000Y-80140000D01*
X159370000Y-79470000D02*
X162030000Y-79470000D01*
X159370000Y-81660000D02*
X159370000Y-85220000D01*
X159370000Y-86740000D02*
X159370000Y-89950000D01*
X159370000Y-89950000D02*
X162030000Y-89950000D01*
X162030000Y-79470000D02*
X162030000Y-82680000D01*
X162030000Y-84200000D02*
X162030000Y-87760000D01*
X162030000Y-89280000D02*
X162030000Y-89950000D01*
%TO.C,U3*%
X154010000Y-78130000D02*
X154010000Y-76800000D01*
X155340000Y-78130000D02*
X154010000Y-78130000D01*
X156610000Y-78130000D02*
X164290000Y-78130000D01*
X156610000Y-78130000D02*
X156610000Y-75470000D01*
X164290000Y-78130000D02*
X164290000Y-75470000D01*
X156610000Y-75470000D02*
X164290000Y-75470000D01*
%TO.C,J2*%
X141110000Y-78130000D02*
X151330000Y-78130000D01*
X141110000Y-78130000D02*
X141110000Y-75470000D01*
X151330000Y-78130000D02*
X151330000Y-75470000D01*
X138510000Y-76800000D02*
X138510000Y-75470000D01*
X138510000Y-75470000D02*
X139840000Y-75470000D01*
X141110000Y-75470000D02*
X151330000Y-75470000D01*
%TO.C,U2*%
X138260000Y-88135000D02*
X148540000Y-88135000D01*
X148540000Y-88135000D02*
X148540000Y-81665000D01*
X138260000Y-85900000D02*
X138260000Y-88135000D01*
X138260000Y-81665000D02*
X138260000Y-83900000D01*
X148540000Y-81665000D02*
X138260000Y-81665000D01*
X138260000Y-83900000D02*
G75*
G02*
X138260000Y-85900000I0J-1000000D01*
G01*
%TO.C,U1*%
X153395000Y-84645000D02*
X151195000Y-84645000D01*
X153395000Y-84645000D02*
X155595000Y-84645000D01*
X153395000Y-89865000D02*
X151195000Y-89865000D01*
X153395000Y-89865000D02*
X155595000Y-89865000D01*
X150495000Y-84845000D02*
X150255000Y-84515000D01*
X150735000Y-84515000D01*
X150495000Y-84845000D01*
G36*
X150495000Y-84845000D02*
G01*
X150255000Y-84515000D01*
X150735000Y-84515000D01*
X150495000Y-84845000D01*
G37*
%TO.C,R5*%
X137662500Y-88562742D02*
X137662500Y-89037258D01*
X136617500Y-88562742D02*
X136617500Y-89037258D01*
%TD*%
M02*
