%TF.GenerationSoftware,KiCad,Pcbnew,8.0.1*%
%TF.CreationDate,2025-01-27T15:49:21-05:00*%
%TF.ProjectId,PHY,5048592e-6b69-4636-9164-5f7063625858,rev?*%
%TF.SameCoordinates,Original*%
%TF.FileFunction,Copper,L1,Top*%
%TF.FilePolarity,Positive*%
%FSLAX46Y46*%
G04 Gerber Fmt 4.6, Leading zero omitted, Abs format (unit mm)*
G04 Created by KiCad (PCBNEW 8.0.1) date 2025-01-27 15:49:21*
%MOMM*%
%LPD*%
G01*
G04 APERTURE LIST*
G04 Aperture macros list*
%AMRoundRect*
0 Rectangle with rounded corners*
0 $1 Rounding radius*
0 $2 $3 $4 $5 $6 $7 $8 $9 X,Y pos of 4 corners*
0 Add a 4 corners polygon primitive as box body*
4,1,4,$2,$3,$4,$5,$6,$7,$8,$9,$2,$3,0*
0 Add four circle primitives for the rounded corners*
1,1,$1+$1,$2,$3*
1,1,$1+$1,$4,$5*
1,1,$1+$1,$6,$7*
1,1,$1+$1,$8,$9*
0 Add four rect primitives between the rounded corners*
20,1,$1+$1,$2,$3,$4,$5,0*
20,1,$1+$1,$4,$5,$6,$7,0*
20,1,$1+$1,$6,$7,$8,$9,0*
20,1,$1+$1,$8,$9,$2,$3,0*%
G04 Aperture macros list end*
%TA.AperFunction,ComponentPad*%
%ADD10R,1.000000X1.000000*%
%TD*%
%TA.AperFunction,ComponentPad*%
%ADD11R,1.700000X1.700000*%
%TD*%
%TA.AperFunction,SMDPad,CuDef*%
%ADD12R,1.900000X1.000000*%
%TD*%
%TA.AperFunction,ComponentPad*%
%ADD13O,1.700000X1.700000*%
%TD*%
%TA.AperFunction,SMDPad,CuDef*%
%ADD14R,1.780000X2.000000*%
%TD*%
%TA.AperFunction,SMDPad,CuDef*%
%ADD15RoundRect,0.100000X-0.637500X-0.100000X0.637500X-0.100000X0.637500X0.100000X-0.637500X0.100000X0*%
%TD*%
%TA.AperFunction,SMDPad,CuDef*%
%ADD16RoundRect,0.200000X-0.275000X0.200000X-0.275000X-0.200000X0.275000X-0.200000X0.275000X0.200000X0*%
%TD*%
%TA.AperFunction,ViaPad*%
%ADD17C,0.600000*%
%TD*%
%TA.AperFunction,Conductor*%
%ADD18C,0.200000*%
%TD*%
%TA.AperFunction,Conductor*%
%ADD19C,0.500000*%
%TD*%
%TA.AperFunction,Conductor*%
%ADD20C,0.400000*%
%TD*%
G04 APERTURE END LIST*
D10*
%TO.P,J3,1,Pin_1*%
%TO.N,GND1*%
X162400000Y-91600000D03*
%TD*%
D11*
%TO.P,J4,1,Pin_1*%
%TO.N,unconnected-(J4-Pin_1-Pad1)*%
X159100000Y-91100000D03*
%TD*%
D12*
%TO.P,J1,1,Pin_1*%
%TO.N,/Txp*%
X159050000Y-80900000D03*
%TO.P,J1,2,Pin_2*%
%TO.N,/Txn*%
X162350000Y-83440000D03*
%TO.P,J1,3,Pin_3*%
%TO.N,/Rxp*%
X159050000Y-85980000D03*
%TO.P,J1,4,Pin_4*%
%TO.N,/Rxn*%
X162350000Y-88520000D03*
%TD*%
D11*
%TO.P,U3,1,Pin_1*%
%TO.N,GND*%
X155340000Y-76800000D03*
D13*
%TO.P,U3,2,Pin_2*%
%TO.N,+5V*%
X157880000Y-76800000D03*
%TO.P,U3,3,Pin_3*%
%TO.N,GND1*%
X160420000Y-76800000D03*
%TO.P,U3,4,Pin_4*%
%TO.N,+5VA*%
X162960000Y-76800000D03*
%TD*%
D11*
%TO.P,J2,1,Pin_1*%
%TO.N,+3.3V*%
X139840000Y-76800000D03*
D13*
%TO.P,J2,2,Pin_2*%
%TO.N,+5V*%
X142380000Y-76800000D03*
%TO.P,J2,3,Pin_3*%
%TO.N,/Tx*%
X144920000Y-76800000D03*
%TO.P,J2,4,Pin_4*%
%TO.N,/Rx*%
X147460000Y-76800000D03*
%TO.P,J2,5,Pin_5*%
%TO.N,GND*%
X150000000Y-76800000D03*
%TD*%
D14*
%TO.P,U2,1*%
%TO.N,Net-(R5-Pad2)*%
X139590000Y-89665000D03*
%TO.P,U2,2*%
%TO.N,GND*%
X142130000Y-89665000D03*
%TO.P,U2,3*%
%TO.N,Net-(U1-Pad13)*%
X144670000Y-89665000D03*
%TO.P,U2,4*%
%TO.N,GND1*%
X147210000Y-89665000D03*
%TO.P,U2,5*%
%TO.N,GND*%
X147210000Y-80135000D03*
%TO.P,U2,6*%
%TO.N,/Rx*%
X144670000Y-80135000D03*
%TO.P,U2,7*%
%TO.N,GND1*%
X142130000Y-80135000D03*
%TO.P,U2,8*%
%TO.N,Net-(U1A-+)*%
X139590000Y-80135000D03*
%TD*%
D15*
%TO.P,U1,1*%
%TO.N,/Txn*%
X150532500Y-85305000D03*
%TO.P,U1,2*%
%TO.N,/Txp*%
X150532500Y-85955000D03*
%TO.P,U1,3,V+*%
%TO.N,+5VA*%
X150532500Y-86605000D03*
%TO.P,U1,4,-*%
%TO.N,Net-(U1A--)*%
X150532500Y-87255000D03*
%TO.P,U1,5,+*%
%TO.N,Net-(U1A-+)*%
X150532500Y-87905000D03*
%TO.P,U1,6,-*%
X150532500Y-88555000D03*
%TO.P,U1,7,+*%
%TO.N,Net-(U1A--)*%
X150532500Y-89205000D03*
%TO.P,U1,8,-*%
%TO.N,GND1*%
X156257500Y-89205000D03*
%TO.P,U1,9,+*%
X156257500Y-88555000D03*
%TO.P,U1,10,-*%
%TO.N,/Rxn*%
X156257500Y-87905000D03*
%TO.P,U1,11,+*%
%TO.N,/Rxp*%
X156257500Y-87255000D03*
%TO.P,U1,12,V-*%
%TO.N,GND1*%
X156257500Y-86605000D03*
%TO.P,U1,13*%
%TO.N,Net-(U1-Pad13)*%
X156257500Y-85955000D03*
%TO.P,U1,14*%
%TO.N,unconnected-(U1-Pad14)*%
X156257500Y-85305000D03*
%TD*%
D16*
%TO.P,R5,1*%
%TO.N,/Tx*%
X137140000Y-87975000D03*
%TO.P,R5,2*%
%TO.N,Net-(R5-Pad2)*%
X137140000Y-89625000D03*
%TD*%
D17*
%TO.N,+5V*%
X152600000Y-75100000D03*
%TO.N,GND1*%
X142100000Y-81300000D03*
X148000000Y-90400000D03*
%TO.N,GND*%
X142100000Y-90800000D03*
X148200000Y-80100000D03*
%TO.N,GND1*%
X157209303Y-88516593D03*
%TO.N,+5VA*%
X151572850Y-86502067D03*
X149200935Y-86325038D03*
%TO.N,Net-(U1A-+)*%
X147000000Y-87900000D03*
%TO.N,Net-(U1A--)*%
X149592466Y-87285878D03*
X149800000Y-89700000D03*
%TO.N,/Rx*%
X142200000Y-78550000D03*
%TD*%
D18*
%TO.N,/Txp*%
X157240000Y-84360000D02*
X158600000Y-83000000D01*
X158600000Y-83000000D02*
X158600000Y-81350000D01*
X149495000Y-85036544D02*
X150171544Y-84360000D01*
X158600000Y-81350000D02*
X159050000Y-80900000D01*
X149495000Y-85573456D02*
X149495000Y-85036544D01*
X149876544Y-85955000D02*
X149495000Y-85573456D01*
X150532500Y-85955000D02*
X149876544Y-85955000D01*
X150171544Y-84360000D02*
X157240000Y-84360000D01*
%TO.N,Net-(U1-Pad13)*%
X153100000Y-91400000D02*
X146405000Y-91400000D01*
X154800000Y-89700000D02*
X153100000Y-91400000D01*
X154800000Y-86675001D02*
X154800000Y-89700000D01*
X146405000Y-91400000D02*
X144670000Y-89665000D01*
X155520001Y-85955000D02*
X154800000Y-86675001D01*
X156257500Y-85955000D02*
X155520001Y-85955000D01*
D19*
%TO.N,GND1*%
X147265000Y-89665000D02*
X147210000Y-89665000D01*
X148000000Y-90400000D02*
X147265000Y-89665000D01*
D20*
X157209303Y-88516593D02*
X156520896Y-89205000D01*
X157170896Y-88555000D02*
X156257500Y-88555000D01*
D18*
X156520896Y-89205000D02*
X156257500Y-89205000D01*
D20*
X157209303Y-88516593D02*
X157170896Y-88555000D01*
D18*
%TO.N,+5V*%
X152800000Y-75300000D02*
X152600000Y-75100000D01*
X152800000Y-75500000D02*
X152800000Y-75300000D01*
D19*
X152800000Y-75500000D02*
X156580000Y-75500000D01*
X143680000Y-75500000D02*
X152800000Y-75500000D01*
D18*
%TO.N,/Rx*%
X144670000Y-79230000D02*
X144670000Y-80135000D01*
X147100000Y-76800000D02*
X144670000Y-79230000D01*
X147460000Y-76800000D02*
X147100000Y-76800000D01*
D19*
%TO.N,GND*%
X154740000Y-77400000D02*
X155340000Y-76800000D01*
X150000000Y-76800000D02*
X150600000Y-77400000D01*
X150600000Y-77400000D02*
X154740000Y-77400000D01*
D18*
%TO.N,+3.3V*%
X140900000Y-88150000D02*
X140900000Y-91100000D01*
X143400000Y-88200000D02*
X143400000Y-91100000D01*
%TO.N,/Tx*%
X136700000Y-87535000D02*
X137140000Y-87975000D01*
X140500000Y-75300000D02*
X137900000Y-75300000D01*
X141100000Y-77300000D02*
X141100000Y-75900000D01*
X137900000Y-75300000D02*
X136700000Y-76500000D01*
X141750000Y-77950000D02*
X141100000Y-77300000D01*
X141100000Y-75900000D02*
X140500000Y-75300000D01*
X136700000Y-76500000D02*
X136700000Y-87535000D01*
X143770000Y-77950000D02*
X141750000Y-77950000D01*
X144920000Y-76800000D02*
X143770000Y-77950000D01*
%TO.N,Net-(U1A-+)*%
X145900000Y-87900000D02*
X147000000Y-87900000D01*
X139590000Y-81590000D02*
X145900000Y-87900000D01*
X139590000Y-80135000D02*
X139590000Y-81590000D01*
%TO.N,/Rxp*%
X157625000Y-87400000D02*
X159025000Y-86000000D01*
X159025000Y-86000000D02*
X159050000Y-86000000D01*
X156257500Y-87255000D02*
X156402500Y-87400000D01*
X156402500Y-87400000D02*
X157625000Y-87400000D01*
%TO.N,/Txn*%
X162190000Y-83300000D02*
X162350000Y-83460000D01*
X158865686Y-83300000D02*
X162190000Y-83300000D01*
X151077500Y-84760000D02*
X157405686Y-84760000D01*
X157405686Y-84760000D02*
X158865686Y-83300000D01*
X150532500Y-85305000D02*
X151077500Y-84760000D01*
%TO.N,/Rxn*%
X161845000Y-88540000D02*
X162350000Y-88540000D01*
X156362500Y-87800000D02*
X161105000Y-87800000D01*
X161105000Y-87800000D02*
X161845000Y-88540000D01*
X156257500Y-87905000D02*
X156362500Y-87800000D01*
D19*
%TO.N,GND1*%
X142130000Y-81270000D02*
X142100000Y-81300000D01*
X142130000Y-80135000D02*
X142130000Y-81270000D01*
%TO.N,GND*%
X142130000Y-90770000D02*
X142100000Y-90800000D01*
X142130000Y-89665000D02*
X142130000Y-90770000D01*
X148165000Y-80135000D02*
X148200000Y-80100000D01*
X147210000Y-80135000D02*
X148165000Y-80135000D01*
D20*
%TO.N,+5VA*%
X151469917Y-86605000D02*
X151572850Y-86502067D01*
X150532500Y-86605000D02*
X151469917Y-86605000D01*
D18*
%TO.N,Net-(U1A-+)*%
X147005000Y-87905000D02*
X150532500Y-87905000D01*
X147000000Y-87900000D02*
X147005000Y-87905000D01*
D20*
%TO.N,+5VA*%
X149461775Y-86585878D02*
X149200935Y-86325038D01*
X150513378Y-86585878D02*
X149461775Y-86585878D01*
X150532500Y-86605000D02*
X150513378Y-86585878D01*
D18*
%TO.N,Net-(U1A--)*%
X149623344Y-87255000D02*
X150532500Y-87255000D01*
X149592466Y-87285878D02*
X149623344Y-87255000D01*
X150295000Y-89205000D02*
X149800000Y-89700000D01*
X150532500Y-89205000D02*
X150295000Y-89205000D01*
%TO.N,/Rx*%
X143085000Y-78550000D02*
X144670000Y-80135000D01*
X142200000Y-78550000D02*
X143085000Y-78550000D01*
%TO.N,Net-(R5-Pad2)*%
X139550000Y-89625000D02*
X139590000Y-89665000D01*
X137140000Y-89625000D02*
X139550000Y-89625000D01*
D19*
%TO.N,+5V*%
X142380000Y-76800000D02*
X143680000Y-75500000D01*
X156580000Y-75500000D02*
X157880000Y-76800000D01*
D18*
%TO.N,Net-(U1A-+)*%
X150532500Y-88555000D02*
X150532500Y-87905000D01*
%TO.N,GND1*%
X155555000Y-88555000D02*
X156257500Y-88555000D01*
X155220000Y-86905001D02*
X155220000Y-88220000D01*
X155520001Y-86605000D02*
X155220000Y-86905001D01*
X155220000Y-88220000D02*
X155555000Y-88555000D01*
X156257500Y-86605000D02*
X155520001Y-86605000D01*
%TO.N,Net-(U1A--)*%
X151188456Y-87255000D02*
X150532500Y-87255000D01*
X151269999Y-89205000D02*
X151570000Y-88904999D01*
X151570000Y-88904999D02*
X151570000Y-87636544D01*
X151570000Y-87636544D02*
X151188456Y-87255000D01*
X150532500Y-89205000D02*
X151269999Y-89205000D01*
%TD*%
%TA.AperFunction,Conductor*%
%TO.N,+5VA*%
G36*
X164542539Y-74920185D02*
G01*
X164588294Y-74972989D01*
X164599500Y-75024500D01*
X164599500Y-92275500D01*
X164579815Y-92342539D01*
X164527011Y-92388294D01*
X164475500Y-92399500D01*
X163501067Y-92399500D01*
X163434028Y-92379815D01*
X163388273Y-92327011D01*
X163378329Y-92257853D01*
X163384885Y-92232168D01*
X163394090Y-92207485D01*
X163394091Y-92207483D01*
X163400500Y-92147873D01*
X163400499Y-91052128D01*
X163394091Y-90992517D01*
X163343796Y-90857669D01*
X163343795Y-90857668D01*
X163343793Y-90857664D01*
X163257547Y-90742455D01*
X163257544Y-90742452D01*
X163142335Y-90656206D01*
X163142328Y-90656202D01*
X163007482Y-90605908D01*
X163007483Y-90605908D01*
X162947883Y-90599501D01*
X162947881Y-90599500D01*
X162947873Y-90599500D01*
X162947864Y-90599500D01*
X161852129Y-90599500D01*
X161852123Y-90599501D01*
X161792516Y-90605908D01*
X161657671Y-90656202D01*
X161657664Y-90656206D01*
X161542455Y-90742452D01*
X161542452Y-90742455D01*
X161456206Y-90857664D01*
X161456202Y-90857671D01*
X161405908Y-90992517D01*
X161399501Y-91052116D01*
X161399501Y-91052123D01*
X161399500Y-91052135D01*
X161399500Y-92147870D01*
X161399501Y-92147876D01*
X161405909Y-92207485D01*
X161415115Y-92232168D01*
X161420099Y-92301860D01*
X161386613Y-92363182D01*
X161325289Y-92396667D01*
X161298933Y-92399500D01*
X160486432Y-92399500D01*
X160419393Y-92379815D01*
X160373638Y-92327011D01*
X160363694Y-92257853D01*
X160387165Y-92201190D01*
X160390679Y-92196494D01*
X160393796Y-92192331D01*
X160444091Y-92057483D01*
X160450500Y-91997873D01*
X160450499Y-90202128D01*
X160444091Y-90142517D01*
X160416565Y-90068717D01*
X160393797Y-90007671D01*
X160393793Y-90007664D01*
X160307547Y-89892455D01*
X160307544Y-89892452D01*
X160192335Y-89806206D01*
X160192328Y-89806202D01*
X160057482Y-89755908D01*
X160057483Y-89755908D01*
X159997883Y-89749501D01*
X159997881Y-89749500D01*
X159997873Y-89749500D01*
X159997864Y-89749500D01*
X158202129Y-89749500D01*
X158202123Y-89749501D01*
X158142516Y-89755908D01*
X158007671Y-89806202D01*
X158007664Y-89806206D01*
X157892455Y-89892452D01*
X157892452Y-89892455D01*
X157806206Y-90007664D01*
X157806202Y-90007671D01*
X157755908Y-90142517D01*
X157751823Y-90180520D01*
X157749501Y-90202123D01*
X157749500Y-90202135D01*
X157749500Y-91997870D01*
X157749501Y-91997876D01*
X157755908Y-92057483D01*
X157806202Y-92192328D01*
X157806206Y-92192334D01*
X157812835Y-92201190D01*
X157837252Y-92266654D01*
X157822400Y-92334927D01*
X157772995Y-92384332D01*
X157713568Y-92399500D01*
X144529500Y-92399500D01*
X144462461Y-92379815D01*
X144416706Y-92327011D01*
X144405500Y-92275500D01*
X144405500Y-91289499D01*
X144425185Y-91222460D01*
X144477989Y-91176705D01*
X144529500Y-91165499D01*
X145269901Y-91165499D01*
X145336940Y-91185184D01*
X145357582Y-91201818D01*
X146036284Y-91880520D01*
X146036286Y-91880521D01*
X146036290Y-91880524D01*
X146173209Y-91959573D01*
X146173216Y-91959577D01*
X146325943Y-92000501D01*
X146325945Y-92000501D01*
X146491654Y-92000501D01*
X146491670Y-92000500D01*
X153013331Y-92000500D01*
X153013347Y-92000501D01*
X153020943Y-92000501D01*
X153179054Y-92000501D01*
X153179057Y-92000501D01*
X153331785Y-91959577D01*
X153381904Y-91930639D01*
X153468716Y-91880520D01*
X153580520Y-91768716D01*
X153580520Y-91768714D01*
X153590728Y-91758507D01*
X153590730Y-91758504D01*
X155158506Y-90190728D01*
X155158511Y-90190724D01*
X155168714Y-90180520D01*
X155168716Y-90180520D01*
X155280520Y-90068716D01*
X155340129Y-89965470D01*
X155347867Y-89952066D01*
X155398429Y-89903850D01*
X155467035Y-89890623D01*
X155471383Y-89891116D01*
X155580639Y-89905500D01*
X156444289Y-89905499D01*
X156444307Y-89905500D01*
X156451902Y-89905500D01*
X156599880Y-89905500D01*
X156599892Y-89905499D01*
X156934363Y-89905499D01*
X157051753Y-89890046D01*
X157051757Y-89890044D01*
X157051762Y-89890044D01*
X157197841Y-89829536D01*
X157323282Y-89733282D01*
X157419536Y-89607841D01*
X157480044Y-89461762D01*
X157495500Y-89344361D01*
X157495499Y-89344331D01*
X157495607Y-89342710D01*
X157495779Y-89342238D01*
X157496030Y-89340336D01*
X157496455Y-89340392D01*
X157519625Y-89277098D01*
X157553371Y-89245808D01*
X157558821Y-89242383D01*
X157558825Y-89242382D01*
X157711565Y-89146409D01*
X157839119Y-89018855D01*
X157935092Y-88866115D01*
X157994671Y-88695848D01*
X157994672Y-88695842D01*
X158015542Y-88510617D01*
X158042608Y-88446203D01*
X158100203Y-88406647D01*
X158138762Y-88400500D01*
X160775500Y-88400500D01*
X160842539Y-88420185D01*
X160888294Y-88472989D01*
X160899500Y-88524500D01*
X160899500Y-89067870D01*
X160899501Y-89067876D01*
X160905908Y-89127483D01*
X160956202Y-89262328D01*
X160956206Y-89262335D01*
X161042452Y-89377544D01*
X161042455Y-89377547D01*
X161157664Y-89463793D01*
X161157671Y-89463797D01*
X161292517Y-89514091D01*
X161292516Y-89514091D01*
X161299444Y-89514835D01*
X161352127Y-89520500D01*
X163347872Y-89520499D01*
X163407483Y-89514091D01*
X163542331Y-89463796D01*
X163657546Y-89377546D01*
X163743796Y-89262331D01*
X163794091Y-89127483D01*
X163800500Y-89067873D01*
X163800499Y-87972128D01*
X163794091Y-87912517D01*
X163743796Y-87777669D01*
X163743795Y-87777668D01*
X163743793Y-87777664D01*
X163657547Y-87662455D01*
X163657544Y-87662452D01*
X163542335Y-87576206D01*
X163542328Y-87576202D01*
X163407482Y-87525908D01*
X163407483Y-87525908D01*
X163347883Y-87519501D01*
X163347881Y-87519500D01*
X163347873Y-87519500D01*
X163347865Y-87519500D01*
X161725097Y-87519500D01*
X161658058Y-87499815D01*
X161637416Y-87483181D01*
X161592590Y-87438355D01*
X161592588Y-87438352D01*
X161473717Y-87319481D01*
X161473716Y-87319480D01*
X161384251Y-87267828D01*
X161384250Y-87267827D01*
X161336783Y-87240422D01*
X161280881Y-87225443D01*
X161184057Y-87199499D01*
X161025943Y-87199499D01*
X161018347Y-87199499D01*
X161018331Y-87199500D01*
X160190425Y-87199500D01*
X160123386Y-87179815D01*
X160077631Y-87127011D01*
X160067687Y-87057853D01*
X160096712Y-86994297D01*
X160147092Y-86959318D01*
X160205246Y-86937627D01*
X160242331Y-86923796D01*
X160357546Y-86837546D01*
X160443796Y-86722331D01*
X160494091Y-86587483D01*
X160500500Y-86527873D01*
X160500499Y-85432128D01*
X160494091Y-85372517D01*
X160475657Y-85323094D01*
X160443797Y-85237671D01*
X160443793Y-85237664D01*
X160357547Y-85122455D01*
X160357544Y-85122452D01*
X160242335Y-85036206D01*
X160242328Y-85036202D01*
X160107482Y-84985908D01*
X160107483Y-84985908D01*
X160047883Y-84979501D01*
X160047881Y-84979500D01*
X160047873Y-84979500D01*
X160047865Y-84979500D01*
X158334781Y-84979500D01*
X158267742Y-84959815D01*
X158221987Y-84907011D01*
X158212043Y-84837853D01*
X158241068Y-84774297D01*
X158247081Y-84767839D01*
X159078103Y-83936819D01*
X159139426Y-83903334D01*
X159165784Y-83900500D01*
X160778724Y-83900500D01*
X160845763Y-83920185D01*
X160891518Y-83972989D01*
X160902014Y-84011248D01*
X160905908Y-84047483D01*
X160956202Y-84182328D01*
X160956206Y-84182335D01*
X161042452Y-84297544D01*
X161042455Y-84297547D01*
X161157664Y-84383793D01*
X161157671Y-84383797D01*
X161292517Y-84434091D01*
X161292516Y-84434091D01*
X161299444Y-84434835D01*
X161352127Y-84440500D01*
X163347872Y-84440499D01*
X163407483Y-84434091D01*
X163542331Y-84383796D01*
X163657546Y-84297546D01*
X163743796Y-84182331D01*
X163794091Y-84047483D01*
X163800500Y-83987873D01*
X163800499Y-82892128D01*
X163794091Y-82832517D01*
X163743796Y-82697669D01*
X163743795Y-82697668D01*
X163743793Y-82697664D01*
X163657547Y-82582455D01*
X163657544Y-82582452D01*
X163542335Y-82496206D01*
X163542328Y-82496202D01*
X163407482Y-82445908D01*
X163407483Y-82445908D01*
X163347883Y-82439501D01*
X163347881Y-82439500D01*
X163347873Y-82439500D01*
X163347864Y-82439500D01*
X161352129Y-82439500D01*
X161352123Y-82439501D01*
X161292516Y-82445908D01*
X161157671Y-82496202D01*
X161157664Y-82496206D01*
X161042456Y-82582452D01*
X161042455Y-82582453D01*
X161042454Y-82582454D01*
X161009099Y-82627011D01*
X160992031Y-82649811D01*
X160936097Y-82691682D01*
X160892764Y-82699500D01*
X159324500Y-82699500D01*
X159257461Y-82679815D01*
X159211706Y-82627011D01*
X159200500Y-82575500D01*
X159200500Y-82024499D01*
X159220185Y-81957460D01*
X159272989Y-81911705D01*
X159324500Y-81900499D01*
X160047871Y-81900499D01*
X160047872Y-81900499D01*
X160107483Y-81894091D01*
X160242331Y-81843796D01*
X160357546Y-81757546D01*
X160443796Y-81642331D01*
X160494091Y-81507483D01*
X160500500Y-81447873D01*
X160500499Y-80352128D01*
X160494091Y-80292517D01*
X160443796Y-80157669D01*
X160443795Y-80157668D01*
X160443793Y-80157664D01*
X160357547Y-80042455D01*
X160357544Y-80042452D01*
X160242335Y-79956206D01*
X160242328Y-79956202D01*
X160107482Y-79905908D01*
X160107483Y-79905908D01*
X160047883Y-79899501D01*
X160047881Y-79899500D01*
X160047873Y-79899500D01*
X160047864Y-79899500D01*
X158052129Y-79899500D01*
X158052123Y-79899501D01*
X157992516Y-79905908D01*
X157857671Y-79956202D01*
X157857664Y-79956206D01*
X157742455Y-80042452D01*
X157742452Y-80042455D01*
X157656206Y-80157664D01*
X157656202Y-80157671D01*
X157605908Y-80292517D01*
X157599501Y-80352116D01*
X157599501Y-80352123D01*
X157599500Y-80352135D01*
X157599500Y-81447870D01*
X157599501Y-81447876D01*
X157605908Y-81507483D01*
X157656202Y-81642328D01*
X157656206Y-81642335D01*
X157742452Y-81757544D01*
X157742455Y-81757547D01*
X157857664Y-81843793D01*
X157857669Y-81843796D01*
X157918833Y-81866608D01*
X157974766Y-81908478D01*
X157999184Y-81973942D01*
X157999500Y-81982790D01*
X157999500Y-82699903D01*
X157979815Y-82766942D01*
X157963181Y-82787584D01*
X157027584Y-83723181D01*
X156966261Y-83756666D01*
X156939903Y-83759500D01*
X150258214Y-83759500D01*
X150258198Y-83759499D01*
X150250602Y-83759499D01*
X150092487Y-83759499D01*
X150016123Y-83779961D01*
X149939758Y-83800423D01*
X149939753Y-83800426D01*
X149802834Y-83879475D01*
X149802826Y-83879481D01*
X149014481Y-84667826D01*
X149014479Y-84667829D01*
X148979328Y-84728714D01*
X148979327Y-84728716D01*
X148935423Y-84804758D01*
X148935423Y-84804759D01*
X148894499Y-84957487D01*
X148894499Y-84957489D01*
X148894499Y-85125590D01*
X148894500Y-85125603D01*
X148894500Y-85486786D01*
X148894499Y-85486804D01*
X148894499Y-85652510D01*
X148894498Y-85652510D01*
X148935423Y-85805240D01*
X148935424Y-85805244D01*
X148941424Y-85815636D01*
X148941427Y-85815640D01*
X149014477Y-85942168D01*
X149014481Y-85942173D01*
X149284143Y-86211835D01*
X149317628Y-86273158D01*
X149312644Y-86342850D01*
X149311028Y-86346957D01*
X149310446Y-86348361D01*
X149310444Y-86348369D01*
X149294999Y-86465679D01*
X149294923Y-86466847D01*
X149294802Y-86467175D01*
X149294470Y-86469702D01*
X149293904Y-86469627D01*
X149270892Y-86532454D01*
X149237161Y-86563722D01*
X149199348Y-86587482D01*
X149090203Y-86656062D01*
X148962650Y-86783615D01*
X148866677Y-86936354D01*
X148807097Y-87106623D01*
X148807096Y-87106627D01*
X148797209Y-87194384D01*
X148770142Y-87258798D01*
X148712547Y-87298353D01*
X148673989Y-87304500D01*
X147587940Y-87304500D01*
X147520901Y-87284815D01*
X147507871Y-87274315D01*
X147507705Y-87274525D01*
X147502262Y-87270184D01*
X147349523Y-87174211D01*
X147179254Y-87114631D01*
X147179249Y-87114630D01*
X147000004Y-87094435D01*
X146999996Y-87094435D01*
X146820750Y-87114630D01*
X146820745Y-87114631D01*
X146650476Y-87174211D01*
X146497736Y-87270185D01*
X146494903Y-87272445D01*
X146492724Y-87273334D01*
X146491842Y-87273889D01*
X146491744Y-87273734D01*
X146430217Y-87298855D01*
X146417588Y-87299500D01*
X146200098Y-87299500D01*
X146133059Y-87279815D01*
X146112417Y-87263181D01*
X140644414Y-81795179D01*
X140610929Y-81733856D01*
X140615913Y-81664164D01*
X140657785Y-81608231D01*
X140688760Y-81591317D01*
X140722331Y-81578796D01*
X140785689Y-81531365D01*
X140851153Y-81506949D01*
X140919426Y-81521800D01*
X140934311Y-81531366D01*
X140997669Y-81578796D01*
X140997671Y-81578797D01*
X141031234Y-81591315D01*
X141132517Y-81629091D01*
X141192127Y-81635500D01*
X141296867Y-81635499D01*
X141363905Y-81655183D01*
X141401861Y-81693527D01*
X141442086Y-81757544D01*
X141470184Y-81802262D01*
X141597738Y-81929816D01*
X141750478Y-82025789D01*
X141920745Y-82085368D01*
X141920750Y-82085369D01*
X142099996Y-82105565D01*
X142100000Y-82105565D01*
X142100004Y-82105565D01*
X142279249Y-82085369D01*
X142279252Y-82085368D01*
X142279255Y-82085368D01*
X142449522Y-82025789D01*
X142602262Y-81929816D01*
X142729816Y-81802262D01*
X142798139Y-81693527D01*
X142850474Y-81647236D01*
X142903133Y-81635499D01*
X143067871Y-81635499D01*
X143067872Y-81635499D01*
X143127483Y-81629091D01*
X143262331Y-81578796D01*
X143325689Y-81531365D01*
X143391153Y-81506949D01*
X143459426Y-81521800D01*
X143474311Y-81531366D01*
X143537669Y-81578796D01*
X143537671Y-81578797D01*
X143672517Y-81629091D01*
X143672516Y-81629091D01*
X143679444Y-81629835D01*
X143732127Y-81635500D01*
X145607872Y-81635499D01*
X145667483Y-81629091D01*
X145802331Y-81578796D01*
X145865689Y-81531365D01*
X145931153Y-81506949D01*
X145999426Y-81521800D01*
X146014311Y-81531366D01*
X146077669Y-81578796D01*
X146077671Y-81578797D01*
X146212517Y-81629091D01*
X146212516Y-81629091D01*
X146219444Y-81629835D01*
X146272127Y-81635500D01*
X148147872Y-81635499D01*
X148207483Y-81629091D01*
X148342331Y-81578796D01*
X148457546Y-81492546D01*
X148543796Y-81377331D01*
X148594091Y-81242483D01*
X148595874Y-81234939D01*
X148598648Y-81235594D01*
X148620218Y-81183493D01*
X148633169Y-81169714D01*
X150858460Y-79137928D01*
X150921240Y-79107262D01*
X150942069Y-79105500D01*
X158248640Y-79105500D01*
X158258786Y-79104955D01*
X158302678Y-79102603D01*
X158302686Y-79102602D01*
X158302688Y-79102602D01*
X158302689Y-79102602D01*
X158309682Y-79101849D01*
X158329036Y-79099769D01*
X158329046Y-79099767D01*
X158329049Y-79099767D01*
X158338648Y-79098211D01*
X158382448Y-79091114D01*
X158517257Y-79040832D01*
X158578580Y-79007347D01*
X158693762Y-78921123D01*
X159143078Y-78471806D01*
X159162373Y-78451408D01*
X159171552Y-78441148D01*
X159189676Y-78419722D01*
X159262601Y-78295691D01*
X159289082Y-78231034D01*
X159289082Y-78231033D01*
X159289083Y-78231025D01*
X159289266Y-78230581D01*
X159289850Y-78227970D01*
X159324110Y-78091482D01*
X159323412Y-78073901D01*
X159318403Y-77947726D01*
X159318402Y-77947721D01*
X159318402Y-77947715D01*
X159313964Y-77923665D01*
X159321155Y-77854168D01*
X159364779Y-77799590D01*
X159430984Y-77777261D01*
X159498752Y-77794269D01*
X159523586Y-77813482D01*
X159548599Y-77838495D01*
X159606455Y-77879006D01*
X159742165Y-77974032D01*
X159742167Y-77974033D01*
X159742170Y-77974035D01*
X159956337Y-78073903D01*
X160184592Y-78135063D01*
X160372918Y-78151539D01*
X160419999Y-78155659D01*
X160420000Y-78155659D01*
X160420001Y-78155659D01*
X160459234Y-78152226D01*
X160655408Y-78135063D01*
X160883663Y-78073903D01*
X161097830Y-77974035D01*
X161291401Y-77838495D01*
X161458495Y-77671401D01*
X161588730Y-77485405D01*
X161643307Y-77441781D01*
X161712805Y-77434587D01*
X161775160Y-77466110D01*
X161791879Y-77485405D01*
X161921890Y-77671078D01*
X162088917Y-77838105D01*
X162282421Y-77973600D01*
X162496507Y-78073429D01*
X162496516Y-78073433D01*
X162710000Y-78130634D01*
X162710000Y-77233012D01*
X162767007Y-77265925D01*
X162894174Y-77300000D01*
X163025826Y-77300000D01*
X163152993Y-77265925D01*
X163210000Y-77233012D01*
X163210000Y-78130633D01*
X163423483Y-78073433D01*
X163423492Y-78073429D01*
X163637578Y-77973600D01*
X163831082Y-77838105D01*
X163998105Y-77671082D01*
X164133600Y-77477578D01*
X164233429Y-77263492D01*
X164233432Y-77263486D01*
X164290636Y-77050000D01*
X163393012Y-77050000D01*
X163425925Y-76992993D01*
X163460000Y-76865826D01*
X163460000Y-76734174D01*
X163425925Y-76607007D01*
X163393012Y-76550000D01*
X164290636Y-76550000D01*
X164290635Y-76549999D01*
X164233432Y-76336513D01*
X164233429Y-76336507D01*
X164133600Y-76122422D01*
X164133599Y-76122420D01*
X163998113Y-75928926D01*
X163998108Y-75928920D01*
X163831082Y-75761894D01*
X163637578Y-75626399D01*
X163423492Y-75526570D01*
X163423486Y-75526567D01*
X163210000Y-75469364D01*
X163210000Y-76366988D01*
X163152993Y-76334075D01*
X163025826Y-76300000D01*
X162894174Y-76300000D01*
X162767007Y-76334075D01*
X162710000Y-76366988D01*
X162710000Y-75469364D01*
X162709999Y-75469364D01*
X162496513Y-75526567D01*
X162496507Y-75526570D01*
X162282422Y-75626399D01*
X162282420Y-75626400D01*
X162088926Y-75761886D01*
X162088920Y-75761891D01*
X161921891Y-75928920D01*
X161921890Y-75928922D01*
X161791880Y-76114595D01*
X161737303Y-76158219D01*
X161667804Y-76165412D01*
X161605450Y-76133890D01*
X161588730Y-76114594D01*
X161458494Y-75928597D01*
X161291402Y-75761506D01*
X161291395Y-75761501D01*
X161097834Y-75625967D01*
X161097830Y-75625965D01*
X161080595Y-75617928D01*
X160883663Y-75526097D01*
X160883659Y-75526096D01*
X160883655Y-75526094D01*
X160655413Y-75464938D01*
X160655403Y-75464936D01*
X160420001Y-75444341D01*
X160419999Y-75444341D01*
X160184596Y-75464936D01*
X160184586Y-75464938D01*
X159956344Y-75526094D01*
X159956335Y-75526098D01*
X159781905Y-75607436D01*
X159712827Y-75617928D01*
X159649043Y-75589408D01*
X159610804Y-75530932D01*
X159605500Y-75495054D01*
X159605500Y-75024500D01*
X159625185Y-74957461D01*
X159677989Y-74911706D01*
X159729500Y-74900500D01*
X164475500Y-74900500D01*
X164542539Y-74920185D01*
G37*
%TD.AperFunction*%
%TA.AperFunction,Conductor*%
G36*
X154966754Y-85380185D02*
G01*
X155012509Y-85432989D01*
X155022654Y-85468317D01*
X155030353Y-85526805D01*
X155019586Y-85595840D01*
X154995095Y-85630669D01*
X154431286Y-86194479D01*
X154319481Y-86306283D01*
X154319479Y-86306285D01*
X154295998Y-86346957D01*
X154283436Y-86368716D01*
X154240423Y-86443216D01*
X154199499Y-86595944D01*
X154199499Y-86595946D01*
X154199499Y-86764047D01*
X154199500Y-86764060D01*
X154199500Y-89399903D01*
X154179815Y-89466942D01*
X154163181Y-89487584D01*
X152887584Y-90763181D01*
X152826261Y-90796666D01*
X152799903Y-90799500D01*
X148883063Y-90799500D01*
X148816024Y-90779815D01*
X148770269Y-90727011D01*
X148760325Y-90657853D01*
X148766022Y-90634545D01*
X148785366Y-90579262D01*
X148785369Y-90579249D01*
X148805565Y-90400003D01*
X148805565Y-90399996D01*
X148785369Y-90220750D01*
X148785368Y-90220745D01*
X148725789Y-90050478D01*
X148725188Y-90049522D01*
X148690123Y-89993716D01*
X148629816Y-89897738D01*
X148629812Y-89897734D01*
X148627550Y-89894897D01*
X148626658Y-89892713D01*
X148626111Y-89891842D01*
X148626263Y-89891746D01*
X148601143Y-89830210D01*
X148600499Y-89817586D01*
X148600499Y-88629500D01*
X148620184Y-88562461D01*
X148672988Y-88516706D01*
X148724499Y-88505500D01*
X149170501Y-88505500D01*
X149237540Y-88525185D01*
X149283295Y-88577989D01*
X149294501Y-88629500D01*
X149294501Y-88694363D01*
X149309953Y-88811753D01*
X149309957Y-88811765D01*
X149318566Y-88832550D01*
X149326033Y-88902019D01*
X149318566Y-88927450D01*
X149309957Y-88948234D01*
X149309956Y-88948238D01*
X149298814Y-89032869D01*
X149270547Y-89096765D01*
X149263557Y-89104364D01*
X149170184Y-89197737D01*
X149074211Y-89350476D01*
X149014631Y-89520745D01*
X149014630Y-89520750D01*
X148994435Y-89699996D01*
X148994435Y-89700003D01*
X149014630Y-89879249D01*
X149014631Y-89879254D01*
X149074211Y-90049523D01*
X149156523Y-90180521D01*
X149170184Y-90202262D01*
X149297738Y-90329816D01*
X149450478Y-90425789D01*
X149620745Y-90485368D01*
X149620750Y-90485369D01*
X149799996Y-90505565D01*
X149800000Y-90505565D01*
X149800004Y-90505565D01*
X149979249Y-90485369D01*
X149979252Y-90485368D01*
X149979255Y-90485368D01*
X150149522Y-90425789D01*
X150302262Y-90329816D01*
X150429816Y-90202262D01*
X150525789Y-90049522D01*
X150547125Y-89988545D01*
X150587846Y-89931769D01*
X150652799Y-89906021D01*
X150664167Y-89905499D01*
X151209363Y-89905499D01*
X151326753Y-89890046D01*
X151326757Y-89890044D01*
X151326762Y-89890044D01*
X151472841Y-89829536D01*
X151598282Y-89733282D01*
X151619574Y-89705532D01*
X151633403Y-89691704D01*
X151632967Y-89691268D01*
X151638715Y-89685520D01*
X151750519Y-89573716D01*
X151750519Y-89573714D01*
X151760723Y-89563511D01*
X151760727Y-89563506D01*
X151928506Y-89395727D01*
X151928511Y-89395723D01*
X151938714Y-89385519D01*
X151938716Y-89385519D01*
X152050520Y-89273715D01*
X152129577Y-89136783D01*
X152161176Y-89018855D01*
X152170500Y-88984057D01*
X152170500Y-88825942D01*
X152170500Y-87725604D01*
X152170501Y-87725591D01*
X152170501Y-87557488D01*
X152170501Y-87557487D01*
X152129577Y-87404760D01*
X152080341Y-87319480D01*
X152050524Y-87267834D01*
X152050521Y-87267830D01*
X152050520Y-87267828D01*
X151780856Y-86998164D01*
X151747371Y-86936841D01*
X151752355Y-86867149D01*
X151753979Y-86863024D01*
X151754555Y-86861632D01*
X151754555Y-86861630D01*
X151762012Y-86805000D01*
X151719500Y-86805000D01*
X151652461Y-86785315D01*
X151621125Y-86756487D01*
X151598283Y-86726719D01*
X151598282Y-86726718D01*
X151567860Y-86703374D01*
X151526658Y-86646949D01*
X151522503Y-86577203D01*
X151556714Y-86516282D01*
X151567851Y-86506631D01*
X151598282Y-86483282D01*
X151611819Y-86465640D01*
X151621125Y-86453513D01*
X151677553Y-86412310D01*
X151719500Y-86405000D01*
X151762010Y-86405000D01*
X151762011Y-86404998D01*
X151754558Y-86348377D01*
X151754554Y-86348365D01*
X151746163Y-86328106D01*
X151738694Y-86258637D01*
X151746164Y-86233199D01*
X151755044Y-86211762D01*
X151770500Y-86094361D01*
X151770499Y-85815640D01*
X151770498Y-85815636D01*
X151767277Y-85791170D01*
X151755044Y-85698238D01*
X151746434Y-85677454D01*
X151738965Y-85607986D01*
X151746435Y-85582545D01*
X151746536Y-85582301D01*
X151755044Y-85561762D01*
X151763179Y-85499965D01*
X151767347Y-85468314D01*
X151795614Y-85404418D01*
X151853939Y-85365947D01*
X151890286Y-85360500D01*
X154899715Y-85360500D01*
X154966754Y-85380185D01*
G37*
%TD.AperFunction*%
%TD*%
%TA.AperFunction,Conductor*%
%TO.N,+3.3V*%
G36*
X138142540Y-90245185D02*
G01*
X138188295Y-90297989D01*
X138199501Y-90349500D01*
X138199501Y-90712876D01*
X138205908Y-90772483D01*
X138256202Y-90907328D01*
X138256206Y-90907335D01*
X138342452Y-91022544D01*
X138342455Y-91022547D01*
X138457664Y-91108793D01*
X138457671Y-91108797D01*
X138592517Y-91159091D01*
X138592516Y-91159091D01*
X138599444Y-91159835D01*
X138652127Y-91165500D01*
X140527872Y-91165499D01*
X140587483Y-91159091D01*
X140722331Y-91108796D01*
X140785689Y-91061365D01*
X140851153Y-91036949D01*
X140919426Y-91051800D01*
X140934311Y-91061366D01*
X140997669Y-91108796D01*
X140997671Y-91108797D01*
X141042618Y-91125561D01*
X141132517Y-91159091D01*
X141192127Y-91165500D01*
X141315717Y-91165499D01*
X141382756Y-91185183D01*
X141420710Y-91223526D01*
X141470182Y-91302260D01*
X141470184Y-91302262D01*
X141597738Y-91429816D01*
X141750478Y-91525789D01*
X141920745Y-91585368D01*
X141920750Y-91585369D01*
X142099996Y-91605565D01*
X142100000Y-91605565D01*
X142100004Y-91605565D01*
X142279249Y-91585369D01*
X142279252Y-91585368D01*
X142279255Y-91585368D01*
X142449522Y-91525789D01*
X142602262Y-91429816D01*
X142729816Y-91302262D01*
X142779289Y-91223526D01*
X142831621Y-91177236D01*
X142884281Y-91165499D01*
X143067871Y-91165499D01*
X143067872Y-91165499D01*
X143127483Y-91159091D01*
X143262331Y-91108796D01*
X143325689Y-91061365D01*
X143391153Y-91036949D01*
X143459426Y-91051800D01*
X143474311Y-91061366D01*
X143537669Y-91108796D01*
X143537671Y-91108797D01*
X143582618Y-91125561D01*
X143672517Y-91159091D01*
X143732127Y-91165500D01*
X143776000Y-91165499D01*
X143843037Y-91185182D01*
X143888793Y-91237985D01*
X143900000Y-91289499D01*
X143900000Y-92275500D01*
X143880315Y-92342539D01*
X143827511Y-92388294D01*
X143776000Y-92399500D01*
X136724500Y-92399500D01*
X136657461Y-92379815D01*
X136611706Y-92327011D01*
X136600500Y-92275500D01*
X136600500Y-90642387D01*
X136620185Y-90575348D01*
X136672989Y-90529593D01*
X136735723Y-90518896D01*
X136737800Y-90519084D01*
X136737804Y-90519086D01*
X136808384Y-90525500D01*
X136808388Y-90525500D01*
X137471613Y-90525500D01*
X137471616Y-90525500D01*
X137542196Y-90519086D01*
X137704606Y-90468478D01*
X137850185Y-90380472D01*
X137881157Y-90349500D01*
X137968839Y-90261819D01*
X138030162Y-90228334D01*
X138056520Y-90225500D01*
X138075501Y-90225500D01*
X138142540Y-90245185D01*
G37*
%TD.AperFunction*%
%TA.AperFunction,Conductor*%
G36*
X138433039Y-75920185D02*
G01*
X138478794Y-75972989D01*
X138490000Y-76024500D01*
X138490000Y-76550000D01*
X139406988Y-76550000D01*
X139374075Y-76607007D01*
X139340000Y-76734174D01*
X139340000Y-76865826D01*
X139374075Y-76992993D01*
X139406988Y-77050000D01*
X138490000Y-77050000D01*
X138490000Y-77697844D01*
X138496401Y-77757372D01*
X138496403Y-77757379D01*
X138546645Y-77892086D01*
X138546649Y-77892093D01*
X138632809Y-78007187D01*
X138632812Y-78007190D01*
X138747906Y-78093350D01*
X138747913Y-78093354D01*
X138882620Y-78143596D01*
X138882627Y-78143598D01*
X138942155Y-78149999D01*
X138942172Y-78150000D01*
X139590000Y-78150000D01*
X139590000Y-77233012D01*
X139647007Y-77265925D01*
X139774174Y-77300000D01*
X139905826Y-77300000D01*
X140032993Y-77265925D01*
X140090000Y-77233012D01*
X140090000Y-78150000D01*
X140737828Y-78150000D01*
X140737844Y-78149999D01*
X140797372Y-78143598D01*
X140797383Y-78143595D01*
X140939018Y-78090768D01*
X141008709Y-78085783D01*
X141070030Y-78119265D01*
X141070033Y-78119268D01*
X141265139Y-78314374D01*
X141265160Y-78314397D01*
X141362976Y-78412213D01*
X141396461Y-78473536D01*
X141398515Y-78513777D01*
X141397320Y-78524383D01*
X141370254Y-78588797D01*
X141312659Y-78628353D01*
X141274101Y-78634500D01*
X141192130Y-78634500D01*
X141192123Y-78634501D01*
X141132516Y-78640908D01*
X140997671Y-78691202D01*
X140997669Y-78691203D01*
X140934311Y-78738634D01*
X140868847Y-78763051D01*
X140800574Y-78748200D01*
X140785689Y-78738634D01*
X140722330Y-78691203D01*
X140722328Y-78691202D01*
X140587482Y-78640908D01*
X140587483Y-78640908D01*
X140527883Y-78634501D01*
X140527881Y-78634500D01*
X140527873Y-78634500D01*
X140527864Y-78634500D01*
X138652129Y-78634500D01*
X138652123Y-78634501D01*
X138592516Y-78640908D01*
X138457671Y-78691202D01*
X138457664Y-78691206D01*
X138342455Y-78777452D01*
X138342452Y-78777455D01*
X138256206Y-78892664D01*
X138256202Y-78892671D01*
X138205908Y-79027517D01*
X138199501Y-79087116D01*
X138199500Y-79087135D01*
X138199500Y-81182870D01*
X138199501Y-81182876D01*
X138205908Y-81242483D01*
X138256202Y-81377328D01*
X138256206Y-81377335D01*
X138342452Y-81492544D01*
X138342455Y-81492547D01*
X138457664Y-81578793D01*
X138457671Y-81578797D01*
X138502618Y-81595561D01*
X138592517Y-81629091D01*
X138652127Y-81635500D01*
X138885359Y-81635499D01*
X138952398Y-81655183D01*
X138998153Y-81707987D01*
X139005134Y-81727405D01*
X139030423Y-81821785D01*
X139040526Y-81839283D01*
X139040527Y-81839286D01*
X139109475Y-81958709D01*
X139109481Y-81958717D01*
X139228349Y-82077585D01*
X139228354Y-82077589D01*
X143863681Y-86712917D01*
X143897166Y-86774239D01*
X143900000Y-86800597D01*
X143900000Y-88040500D01*
X143880315Y-88107539D01*
X143827511Y-88153294D01*
X143776003Y-88164500D01*
X143732131Y-88164500D01*
X143732123Y-88164501D01*
X143672516Y-88170908D01*
X143537671Y-88221202D01*
X143537669Y-88221203D01*
X143474311Y-88268634D01*
X143408847Y-88293051D01*
X143340574Y-88278200D01*
X143325689Y-88268634D01*
X143320372Y-88264654D01*
X143262331Y-88221204D01*
X143262330Y-88221203D01*
X143262328Y-88221202D01*
X143127482Y-88170908D01*
X143127483Y-88170908D01*
X143067883Y-88164501D01*
X143067881Y-88164500D01*
X143067873Y-88164500D01*
X143067864Y-88164500D01*
X141192129Y-88164500D01*
X141192123Y-88164501D01*
X141132516Y-88170908D01*
X140997671Y-88221202D01*
X140997669Y-88221203D01*
X140934311Y-88268634D01*
X140868847Y-88293051D01*
X140800574Y-88278200D01*
X140785689Y-88268634D01*
X140780372Y-88264654D01*
X140722331Y-88221204D01*
X140722330Y-88221203D01*
X140722328Y-88221202D01*
X140587482Y-88170908D01*
X140587483Y-88170908D01*
X140527883Y-88164501D01*
X140527881Y-88164500D01*
X140527873Y-88164500D01*
X140527864Y-88164500D01*
X138652129Y-88164500D01*
X138652123Y-88164501D01*
X138592516Y-88170908D01*
X138457671Y-88221202D01*
X138457664Y-88221206D01*
X138342455Y-88307452D01*
X138342452Y-88307455D01*
X138338585Y-88312621D01*
X138282649Y-88354489D01*
X138212957Y-88359468D01*
X138151636Y-88325979D01*
X138118155Y-88264654D01*
X138115602Y-88234426D01*
X138115500Y-88234426D01*
X138115500Y-88233218D01*
X138115452Y-88232650D01*
X138115498Y-88231634D01*
X138115500Y-88231616D01*
X138115500Y-87718384D01*
X138109086Y-87647804D01*
X138058478Y-87485394D01*
X137970472Y-87339815D01*
X137970470Y-87339813D01*
X137970469Y-87339811D01*
X137850188Y-87219530D01*
X137704606Y-87131522D01*
X137542196Y-87080914D01*
X137542194Y-87080913D01*
X137542192Y-87080913D01*
X137492778Y-87076423D01*
X137471616Y-87074500D01*
X137471613Y-87074500D01*
X137424500Y-87074500D01*
X137357461Y-87054815D01*
X137311706Y-87002011D01*
X137300500Y-86950500D01*
X137300500Y-76800097D01*
X137320185Y-76733058D01*
X137336819Y-76712416D01*
X138112416Y-75936819D01*
X138173739Y-75903334D01*
X138200097Y-75900500D01*
X138366000Y-75900500D01*
X138433039Y-75920185D01*
G37*
%TD.AperFunction*%
%TD*%
%TA.AperFunction,Conductor*%
%TO.N,+5V*%
G36*
X158130000Y-78130633D02*
G01*
X158343483Y-78073433D01*
X158343492Y-78073429D01*
X158557579Y-77973599D01*
X158626829Y-77925109D01*
X158693035Y-77902781D01*
X158760803Y-77919790D01*
X158808616Y-77970738D01*
X158821295Y-78039447D01*
X158794814Y-78104104D01*
X158785635Y-78114364D01*
X158336319Y-78563681D01*
X158274996Y-78597166D01*
X158248638Y-78600000D01*
X150599999Y-78600000D01*
X150336319Y-78863681D01*
X150274996Y-78897166D01*
X150248638Y-78900000D01*
X148611353Y-78900000D01*
X148544314Y-78880315D01*
X148512088Y-78850313D01*
X148457546Y-78777454D01*
X148420445Y-78749680D01*
X148342335Y-78691206D01*
X148342328Y-78691202D01*
X148207482Y-78640908D01*
X148207483Y-78640908D01*
X148147883Y-78634501D01*
X148147881Y-78634500D01*
X148147873Y-78634500D01*
X148147865Y-78634500D01*
X146414095Y-78634500D01*
X146347056Y-78614815D01*
X146301301Y-78562011D01*
X146291357Y-78492853D01*
X146320382Y-78429297D01*
X146326400Y-78422833D01*
X146716022Y-78033211D01*
X146777343Y-77999728D01*
X146847035Y-78004712D01*
X146856105Y-78008511D01*
X146996337Y-78073903D01*
X147224592Y-78135063D01*
X147401034Y-78150500D01*
X147459999Y-78155659D01*
X147460000Y-78155659D01*
X147460001Y-78155659D01*
X147518966Y-78150500D01*
X147695408Y-78135063D01*
X147923663Y-78073903D01*
X148137830Y-77974035D01*
X148331401Y-77838495D01*
X148498495Y-77671401D01*
X148628425Y-77485842D01*
X148683002Y-77442217D01*
X148752500Y-77435023D01*
X148814855Y-77466546D01*
X148831575Y-77485842D01*
X148961505Y-77671401D01*
X149128599Y-77838495D01*
X149220409Y-77902781D01*
X149322165Y-77974032D01*
X149322167Y-77974033D01*
X149322170Y-77974035D01*
X149536337Y-78073903D01*
X149764592Y-78135063D01*
X149941034Y-78150500D01*
X149999999Y-78155659D01*
X150000000Y-78155659D01*
X150000001Y-78155659D01*
X150022894Y-78153656D01*
X150235408Y-78135063D01*
X150302856Y-78116990D01*
X150372706Y-78118651D01*
X150380082Y-78121353D01*
X150381085Y-78121657D01*
X150381087Y-78121658D01*
X150381089Y-78121658D01*
X150381091Y-78121659D01*
X150526079Y-78150500D01*
X150526082Y-78150500D01*
X154838581Y-78150500D01*
X154838585Y-78150499D01*
X156237871Y-78150499D01*
X156237872Y-78150499D01*
X156297483Y-78144091D01*
X156432331Y-78093796D01*
X156547546Y-78007546D01*
X156633796Y-77892331D01*
X156683002Y-77760401D01*
X156724872Y-77704468D01*
X156790337Y-77680050D01*
X156858610Y-77694901D01*
X156886865Y-77716053D01*
X157008917Y-77838105D01*
X157202421Y-77973600D01*
X157416507Y-78073429D01*
X157416516Y-78073433D01*
X157630000Y-78130634D01*
X157630000Y-77233012D01*
X157687007Y-77265925D01*
X157814174Y-77300000D01*
X157945826Y-77300000D01*
X158072993Y-77265925D01*
X158130000Y-77233012D01*
X158130000Y-78130633D01*
G37*
%TD.AperFunction*%
%TA.AperFunction,Conductor*%
G36*
X159043039Y-74920185D02*
G01*
X159088794Y-74972989D01*
X159100000Y-75024500D01*
X159100000Y-75811450D01*
X159080315Y-75878489D01*
X159027511Y-75924244D01*
X158958353Y-75934188D01*
X158894797Y-75905163D01*
X158888319Y-75899131D01*
X158751082Y-75761894D01*
X158557578Y-75626399D01*
X158343492Y-75526570D01*
X158343486Y-75526567D01*
X158130000Y-75469364D01*
X158130000Y-76366988D01*
X158072993Y-76334075D01*
X157945826Y-76300000D01*
X157814174Y-76300000D01*
X157687007Y-76334075D01*
X157630000Y-76366988D01*
X157630000Y-75469364D01*
X157629999Y-75469364D01*
X157416513Y-75526567D01*
X157416507Y-75526570D01*
X157202422Y-75626399D01*
X157202420Y-75626400D01*
X157008926Y-75761886D01*
X156886865Y-75883947D01*
X156825542Y-75917431D01*
X156755850Y-75912447D01*
X156699917Y-75870575D01*
X156683002Y-75839598D01*
X156633797Y-75707671D01*
X156633793Y-75707664D01*
X156547547Y-75592455D01*
X156547544Y-75592452D01*
X156432335Y-75506206D01*
X156432328Y-75506202D01*
X156297482Y-75455908D01*
X156297483Y-75455908D01*
X156237883Y-75449501D01*
X156237881Y-75449500D01*
X156237873Y-75449500D01*
X156237864Y-75449500D01*
X154442129Y-75449500D01*
X154442123Y-75449501D01*
X154382516Y-75455908D01*
X154247671Y-75506202D01*
X154247664Y-75506206D01*
X154132455Y-75592452D01*
X154132452Y-75592455D01*
X154046206Y-75707664D01*
X154046202Y-75707671D01*
X153995908Y-75842517D01*
X153989501Y-75902116D01*
X153989500Y-75902135D01*
X153989500Y-76525500D01*
X153969815Y-76592539D01*
X153917011Y-76638294D01*
X153865500Y-76649500D01*
X151452963Y-76649500D01*
X151385924Y-76629815D01*
X151340169Y-76577011D01*
X151333188Y-76557593D01*
X151273905Y-76336344D01*
X151273904Y-76336343D01*
X151273903Y-76336337D01*
X151174035Y-76122171D01*
X151168731Y-76114595D01*
X151038494Y-75928597D01*
X150871402Y-75761506D01*
X150871395Y-75761501D01*
X150855348Y-75750265D01*
X150794518Y-75707671D01*
X150677834Y-75625967D01*
X150677830Y-75625965D01*
X150628560Y-75602990D01*
X150463663Y-75526097D01*
X150463659Y-75526096D01*
X150463655Y-75526094D01*
X150235413Y-75464938D01*
X150235403Y-75464936D01*
X150000001Y-75444341D01*
X149999999Y-75444341D01*
X149764596Y-75464936D01*
X149764586Y-75464938D01*
X149536344Y-75526094D01*
X149536335Y-75526098D01*
X149322171Y-75625964D01*
X149322169Y-75625965D01*
X149128597Y-75761505D01*
X148961505Y-75928597D01*
X148831575Y-76114158D01*
X148776998Y-76157783D01*
X148707500Y-76164977D01*
X148645145Y-76133454D01*
X148628425Y-76114158D01*
X148498494Y-75928597D01*
X148331402Y-75761506D01*
X148331395Y-75761501D01*
X148315348Y-75750265D01*
X148254518Y-75707671D01*
X148137834Y-75625967D01*
X148137830Y-75625965D01*
X148088560Y-75602990D01*
X147923663Y-75526097D01*
X147923659Y-75526096D01*
X147923655Y-75526094D01*
X147695413Y-75464938D01*
X147695403Y-75464936D01*
X147460001Y-75444341D01*
X147459999Y-75444341D01*
X147224596Y-75464936D01*
X147224586Y-75464938D01*
X146996344Y-75526094D01*
X146996335Y-75526098D01*
X146782171Y-75625964D01*
X146782169Y-75625965D01*
X146588597Y-75761505D01*
X146421505Y-75928597D01*
X146291575Y-76114158D01*
X146236998Y-76157783D01*
X146167500Y-76164977D01*
X146105145Y-76133454D01*
X146088425Y-76114158D01*
X145958494Y-75928597D01*
X145791402Y-75761506D01*
X145791395Y-75761501D01*
X145775348Y-75750265D01*
X145714518Y-75707671D01*
X145597834Y-75625967D01*
X145597830Y-75625965D01*
X145548560Y-75602990D01*
X145383663Y-75526097D01*
X145383659Y-75526096D01*
X145383655Y-75526094D01*
X145155413Y-75464938D01*
X145155403Y-75464936D01*
X144920001Y-75444341D01*
X144919999Y-75444341D01*
X144684596Y-75464936D01*
X144684586Y-75464938D01*
X144456344Y-75526094D01*
X144456335Y-75526098D01*
X144242171Y-75625964D01*
X144242169Y-75625965D01*
X144048597Y-75761505D01*
X143881508Y-75928594D01*
X143751269Y-76114595D01*
X143696692Y-76158219D01*
X143627193Y-76165412D01*
X143564839Y-76133890D01*
X143548119Y-76114594D01*
X143418113Y-75928926D01*
X143418108Y-75928920D01*
X143251082Y-75761894D01*
X143057578Y-75626399D01*
X142843492Y-75526570D01*
X142843486Y-75526567D01*
X142630000Y-75469364D01*
X142630000Y-76366988D01*
X142572993Y-76334075D01*
X142445826Y-76300000D01*
X142314174Y-76300000D01*
X142187007Y-76334075D01*
X142130000Y-76366988D01*
X142130000Y-75469364D01*
X142129999Y-75469364D01*
X141916513Y-75526567D01*
X141916502Y-75526571D01*
X141752622Y-75602990D01*
X141683545Y-75613482D01*
X141619761Y-75584962D01*
X141592830Y-75552606D01*
X141580522Y-75531287D01*
X141580521Y-75531286D01*
X141580520Y-75531284D01*
X141468716Y-75419480D01*
X141468715Y-75419479D01*
X141464385Y-75415149D01*
X141464374Y-75415139D01*
X141161416Y-75112181D01*
X141127931Y-75050858D01*
X141132915Y-74981166D01*
X141174787Y-74925233D01*
X141240251Y-74900816D01*
X141249097Y-74900500D01*
X158976000Y-74900500D01*
X159043039Y-74920185D01*
G37*
%TD.AperFunction*%
%TD*%
M02*
